<svg width="701" height="645" viewBox="0 0 701 645" fill="none" xmlns="http://www.w3.org/2000/svg">
<rect width="701" height="645" fill="#E5F5FF"/>
<g clip-path="url(#clip0_66_830)">
<path fill-rule="evenodd" clip-rule="evenodd" d="M34.7873 16.8897H32.1035V14.7171H39.7241V16.8897H37.0401V26.0659H34.7873V16.8897Z" fill="black"/>
<path fill-rule="evenodd" clip-rule="evenodd" d="M43.7326 21.2013C43.7326 20.0684 43.4006 19.4519 42.5543 19.4519C41.708 19.4519 41.3098 20.1182 41.2268 21.2013H43.7326ZM39.0029 21.8345C39.0029 19.2518 40.2973 17.619 42.5212 17.619C44.7947 17.619 46.0392 19.4519 45.7738 22.6842H41.3098C41.4922 23.8504 42.1892 24.317 43.3343 24.317C43.9982 24.317 44.6287 24.2336 45.2926 23.967V25.633C44.6454 25.933 43.9152 26.0496 43.0356 26.0496C40.4301 26.0496 39.0029 24.4503 39.0029 21.8345Z" fill="black"/>
<mask id="mask0_66_830" style="mask-type:alpha" maskUnits="userSpaceOnUse" x="7" y="7" width="130" height="27">
<path d="M7 33.3291H136.945V7.02106H7V33.3291Z" fill="white"/>
</mask>
<g mask="url(#mask0_66_830)">
<path fill-rule="evenodd" clip-rule="evenodd" d="M46.848 25.7836H49.0717V13.6208H46.848V25.7836Z" fill="black"/>
<path fill-rule="evenodd" clip-rule="evenodd" d="M54.7915 21.1518C54.7915 20.0189 54.4595 19.4024 53.6132 19.4024C52.7669 19.4024 52.3687 20.0687 52.2857 21.1518H54.7915ZM50.0618 21.785C50.0618 19.2023 51.3562 17.5695 53.5801 17.5695C55.8536 17.5695 57.0981 19.4024 56.8327 22.6347H52.3687C52.5511 23.8009 53.2481 24.2675 54.3932 24.2675C55.0571 24.2675 55.6876 24.1841 56.3515 23.9175V25.5835C55.7043 25.8835 54.9741 26.0003 54.0945 26.0003C51.489 26.0003 50.0618 24.4008 50.0618 21.785Z" fill="black"/>
<path fill-rule="evenodd" clip-rule="evenodd" d="M60.0591 23.2344C60.3247 23.7343 60.7395 24.0508 61.2705 24.0508C62.2165 24.0508 62.5816 23.2344 62.5816 21.785C62.5816 20.3354 62.2165 19.519 61.2705 19.519C60.7395 19.519 60.3247 19.8355 60.0591 20.3354V23.2344ZM61.9179 26.0003C61.0218 26.0003 60.4409 25.617 60.0591 25.1837V29.4491H57.8354V17.7862H59.8268V18.6026C60.1919 18.086 60.8391 17.5695 61.8681 17.5695C64.0088 17.5695 64.7888 19.5356 64.7888 21.785C64.7888 24.2507 63.8926 26.0003 61.9179 26.0003Z" fill="black"/>
<path fill-rule="evenodd" clip-rule="evenodd" d="M70.1901 21.1518C70.1901 20.0189 69.8582 19.4024 69.0118 19.4024C68.1655 19.4024 67.7673 20.0687 67.6843 21.1518H70.1901ZM65.4604 21.785C65.4604 19.2023 66.7548 17.5695 68.9787 17.5695C71.2522 17.5695 72.4969 19.4024 72.2313 22.6347H67.7673C67.9497 23.8009 68.6468 24.2675 69.7918 24.2675C70.4557 24.2675 71.0862 24.1841 71.7501 23.9175V25.5835C71.1029 25.8835 70.3727 26.0003 69.4931 26.0003C66.8876 26.0003 65.4604 24.4008 65.4604 21.785Z" fill="black"/>
<path fill-rule="evenodd" clip-rule="evenodd" d="M73.1245 17.7862H75.1159V19.0024C75.5971 17.9861 76.4933 17.5197 77.6882 17.6196V19.8856C76.6261 19.7522 75.7798 20.1355 75.3482 21.2517V25.7837H73.1245V17.7862Z" fill="black"/>
<path fill-rule="evenodd" clip-rule="evenodd" d="M79.537 19.7189H78.4913V17.7861H79.537V16.7365C79.537 14.6539 80.848 13.9041 82.275 13.9041C82.8559 13.9041 83.2708 13.9874 83.7189 14.1708V16.0035C83.4534 15.8869 83.138 15.8368 82.8227 15.8368C82.192 15.8368 81.7606 16.1368 81.7606 16.8198V17.7861H83.3538V19.7189H81.7606V25.7836H79.537V19.7189Z" fill="black"/>
<path fill-rule="evenodd" clip-rule="evenodd" d="M85.8975 21.7849C85.8975 23.2511 86.2791 24.0507 87.2417 24.0507C88.1877 24.0507 88.5693 23.2511 88.5693 21.7849C88.5693 20.3186 88.1877 19.5024 87.2417 19.5024C86.2791 19.5024 85.8975 20.3186 85.8975 21.7849ZM90.8098 21.7849C90.8098 24.4175 89.5319 26.0002 87.2417 26.0002C84.9351 26.0002 83.6572 24.4175 83.6572 21.7849C83.6572 19.1524 84.9351 17.5696 87.2417 17.5696C89.5319 17.5696 90.8098 19.1357 90.8098 21.7849Z" fill="black"/>
<path fill-rule="evenodd" clip-rule="evenodd" d="M91.6096 17.7862H93.601V19.0024C94.0822 17.9861 94.9784 17.5197 96.1733 17.6196V19.8856C95.1112 19.7522 94.2649 20.1355 93.8333 21.2517V25.7837H91.6096V17.7862Z" fill="black"/>
<path fill-rule="evenodd" clip-rule="evenodd" d="M107.422 20.1355V25.7836H105.232V20.6019C105.232 19.9521 104.933 19.6356 104.402 19.6356C103.937 19.6356 103.572 19.9021 103.29 20.3519V25.7836H101.116V20.6019C101.116 19.9521 100.801 19.6356 100.286 19.6356C99.8383 19.6356 99.4566 19.9021 99.1745 20.3854V25.7836H96.9839V17.7862H98.9753V18.536C99.4401 17.9362 100.12 17.5695 100.983 17.5695C101.846 17.5695 102.494 17.9362 102.875 18.536C103.456 17.8529 104.17 17.5695 105.033 17.5695C106.642 17.5695 107.422 18.7026 107.422 20.1355Z" fill="black"/>
<path fill-rule="evenodd" clip-rule="evenodd" d="M112.679 24.0175V22.4848C112.397 22.418 112.148 22.3847 111.883 22.3847C111.07 22.3847 110.522 22.6514 110.522 23.451C110.522 24.1674 110.954 24.4839 111.485 24.4839C111.982 24.4839 112.331 24.3342 112.679 24.0175ZM115.633 24.1841V25.7503C115.302 25.8502 114.97 25.9002 114.571 25.9002C113.957 25.9002 113.393 25.7168 113.061 25.2837C112.464 25.7669 111.75 26.0003 110.92 26.0003C109.56 26.0003 108.381 25.2004 108.381 23.5176C108.381 21.8015 109.626 20.9518 111.402 20.9518C111.833 20.9518 112.198 21.0019 112.679 21.1019V20.6686C112.679 20.0188 112.381 19.4524 111.285 19.4524C110.389 19.4524 109.543 19.6689 108.879 19.9521V18.0361C109.609 17.7696 110.588 17.5695 111.501 17.5695C113.708 17.5695 114.853 18.5527 114.853 20.8352V23.6842C114.853 24.0841 115.053 24.2174 115.368 24.2174C115.451 24.2174 115.55 24.2009 115.633 24.1841Z" fill="black"/>
<path fill-rule="evenodd" clip-rule="evenodd" d="M116.455 17.7862H118.447V18.536C118.895 18.0029 119.558 17.5695 120.604 17.5695C121.865 17.5695 123.01 18.4527 123.01 20.1188V25.7837H120.786V20.6019C120.786 19.9189 120.455 19.6356 119.874 19.6356C119.293 19.6356 118.895 20.0189 118.679 20.4353V25.7837H116.455V17.7862Z" fill="black"/>
<path fill-rule="evenodd" clip-rule="evenodd" d="M123.938 21.8515C123.938 19.1026 125.531 17.5696 127.722 17.5696C128.402 17.5696 128.917 17.6695 129.464 17.9362V19.8189C129.049 19.6022 128.618 19.4856 128.07 19.4856C126.909 19.4856 126.178 20.3353 126.178 21.7849C126.178 23.2345 126.826 24.0507 127.971 24.0507C128.651 24.0507 129.132 23.9009 129.547 23.7177V25.6502C129.049 25.8836 128.435 26.0002 127.622 26.0002C125.481 26.0002 123.938 24.5173 123.938 21.8515Z" fill="black"/>
<path fill-rule="evenodd" clip-rule="evenodd" d="M134.869 21.1518C134.869 20.0189 134.537 19.4024 133.691 19.4024C132.844 19.4024 132.446 20.0687 132.363 21.1518H134.869ZM130.139 21.785C130.139 19.2023 131.434 17.5695 133.657 17.5695C135.931 17.5695 137.176 19.4024 136.91 22.6347H132.446C132.629 23.8009 133.326 24.2675 134.471 24.2675C135.134 24.2675 135.765 24.1841 136.429 23.9175V25.5835C135.782 25.8835 135.051 26.0003 134.172 26.0003C131.566 26.0003 130.139 24.4008 130.139 21.785Z" fill="black"/>
<path fill-rule="evenodd" clip-rule="evenodd" d="M66.2469 31.1917H68.2721C68.2584 30.345 67.9611 29.8801 67.2768 29.8801C66.5787 29.8801 66.2814 30.338 66.2469 31.1917ZM68.7145 33.0306C68.7353 33.1347 68.7006 33.1902 68.604 33.2111C68.3481 33.2735 67.9336 33.329 67.4981 33.329C66.3299 33.329 65.7562 32.7808 65.7562 31.4762V31.3583C65.7562 30.2132 66.1986 29.5122 67.263 29.5122C68.6315 29.5122 68.68 30.6226 68.7076 31.2611L68.7145 31.3511C68.7145 31.4553 68.6662 31.5108 68.5624 31.5108H66.2469C66.2539 32.5517 66.6409 32.9614 67.5533 32.9614C67.9819 32.9614 68.3275 32.8987 68.5485 32.8572C68.6662 32.8363 68.6937 32.9126 68.7006 32.9614L68.7145 33.0306Z" fill="black"/>
<path fill-rule="evenodd" clip-rule="evenodd" d="M69.8207 32.2534C69.8207 32.7948 70.2007 32.996 70.8712 32.996C71.293 32.996 71.604 32.9125 71.7283 32.864V31.6566C71.5901 31.5803 71.2306 31.4763 70.809 31.4763C70.1455 31.4763 69.8207 31.7328 69.8207 32.2048V32.2534ZM71.7283 31.3236V30.588C71.7283 30.1645 71.521 29.88 70.8436 29.88C70.4842 29.88 70.0142 29.9496 69.7929 29.9911C69.6755 30.012 69.6616 29.9842 69.6339 29.8732L69.6202 29.8175C69.5925 29.6927 69.6408 29.6581 69.7446 29.6372C70.0419 29.5678 70.5879 29.5121 70.9472 29.5121C71.8735 29.5121 72.1914 29.88 72.1914 30.588V32.9543C72.1914 33.0652 72.1708 33.1 72.0395 33.1348C71.8321 33.2179 71.3966 33.3291 70.8436 33.3291C69.9865 33.3291 69.3299 33.0861 69.3299 32.2742V32.177C69.3299 31.5178 69.8207 31.15 70.6985 31.15C71.0718 31.15 71.3966 31.2124 71.7283 31.3236Z" fill="black"/>
<path fill-rule="evenodd" clip-rule="evenodd" d="M75.5024 29.8107C75.4885 29.9077 75.4677 29.9356 75.3848 29.9286C75.0807 29.8938 74.9978 29.8801 74.6937 29.8801C73.8573 29.8801 73.5048 30.4074 73.5048 31.3651V31.4832C73.5048 32.4617 73.878 32.9614 74.7282 32.9614C75.0185 32.9614 75.2259 32.9335 75.4056 32.9057C75.4955 32.8918 75.5091 32.982 75.5161 33.0306L75.5299 33.1139C75.5438 33.2111 75.5091 33.2389 75.4125 33.2527C75.1154 33.3014 74.8526 33.329 74.6383 33.329C73.491 33.329 73.014 32.6905 73.014 31.4692V31.3651C73.014 30.1786 73.5048 29.5122 74.6038 29.5122C74.9425 29.5122 75.1221 29.5331 75.4056 29.5816C75.4885 29.5955 75.5369 29.6234 75.523 29.7274L75.5024 29.8107Z" fill="black"/>
<path fill-rule="evenodd" clip-rule="evenodd" d="M79.1382 33.107C79.1382 33.2111 79.0897 33.2597 78.993 33.2597H78.834C78.7304 33.2597 78.6821 33.2111 78.6821 33.107V30.8517C78.6821 30.2826 78.4262 29.9008 77.7972 29.9008C77.424 29.9008 76.9263 30.0327 76.7465 30.1229V33.107C76.7465 33.2111 76.6982 33.2597 76.5946 33.2597H76.4356C76.332 33.2597 76.2834 33.2111 76.2834 33.107V28.2423C76.2834 28.1383 76.332 28.0896 76.4356 28.0896H76.5946C76.6982 28.0896 76.7465 28.1383 76.7465 28.2423V29.7412C77.106 29.6095 77.5415 29.5123 77.9216 29.5123C78.7857 29.5123 79.1382 30.0259 79.1382 30.8099V33.107Z" fill="black"/>
<path fill-rule="evenodd" clip-rule="evenodd" d="M82.7602 33.0099C82.774 33.1069 82.781 33.1626 82.6705 33.1972C82.5459 33.2318 82.4284 33.2596 82.2971 33.2596C81.8963 33.2596 81.6612 33.0932 81.6612 32.4756V29.7343C81.6612 29.6303 81.7097 29.5816 81.8063 29.5816H81.9654C82.069 29.5816 82.1173 29.6303 82.1173 29.7343V32.4756C82.1173 32.7599 82.2003 32.8917 82.4076 32.8917C82.4837 32.8917 82.5875 32.8711 82.6566 32.8502C82.7118 32.8363 82.7396 32.878 82.7534 32.9613L82.7602 33.0099ZM81.7925 28.971C81.6889 28.971 81.6404 28.9224 81.6404 28.8183V28.4506C81.6404 28.3464 81.6889 28.2979 81.7925 28.2979H81.9929C82.0898 28.2979 82.1381 28.3464 82.1381 28.4506V28.8183C82.1381 28.9224 82.0898 28.971 81.9929 28.971H81.7925Z" fill="black"/>
<path fill-rule="evenodd" clip-rule="evenodd" d="M86.1403 33.107C86.1403 33.2112 86.0918 33.2597 85.9951 33.2597H85.8361C85.7325 33.2597 85.684 33.2112 85.684 33.107V30.8517C85.684 30.2826 85.4283 29.9008 84.7993 29.9008C84.4261 29.9008 83.9284 30.0327 83.7486 30.1229V33.107C83.7486 33.2112 83.7002 33.2597 83.5967 33.2597H83.4376C83.334 33.2597 83.2855 33.2112 83.2855 33.107V30.0188C83.2855 29.9148 83.334 29.8454 83.4307 29.7968C83.7141 29.6648 84.2948 29.5123 84.8339 29.5123C85.76 29.5123 86.1403 30.0188 86.1403 30.796V33.107Z" fill="black"/>
<path fill-rule="evenodd" clip-rule="evenodd" d="M87.1428 29.9495H86.8939C86.7903 29.9495 86.7419 29.901 86.7419 29.7968V29.7343C86.7419 29.6303 86.7903 29.5816 86.8939 29.5816H87.1428V28.9431C87.1428 28.8391 87.1911 28.7904 87.2949 28.7904H87.4538C87.5575 28.7904 87.6059 28.8391 87.6059 28.9431V29.5816H88.2624C88.3731 29.5816 88.4145 29.6303 88.4145 29.7343V29.7968C88.4145 29.901 88.3731 29.9495 88.2624 29.9495H87.6059V32.3157C87.6059 32.6559 87.7166 32.8918 88.0828 32.8918C88.1727 32.8918 88.304 32.878 88.4353 32.8432C88.4975 32.8363 88.5391 32.8918 88.5391 32.989V33.0584C88.5391 33.1626 88.5322 33.1902 88.4215 33.2041C88.2901 33.2457 88.1658 33.2596 88.0345 33.2596C87.3985 33.2596 87.1428 32.9405 87.1428 32.3157V29.9495Z" fill="black"/>
<path fill-rule="evenodd" clip-rule="evenodd" d="M89.417 31.1917H91.4423C91.4284 30.345 91.1312 29.8801 90.4469 29.8801C89.7487 29.8801 89.4515 30.338 89.417 31.1917ZM91.8845 33.0306C91.9053 33.1347 91.8707 33.1902 91.774 33.2111C91.5182 33.2735 91.1036 33.329 90.6681 33.329C89.5 33.329 88.9262 32.7808 88.9262 31.4762V31.3583C88.9262 30.2132 89.3687 29.5122 90.433 29.5122C91.8016 29.5122 91.8501 30.6226 91.8776 31.2611L91.8845 31.3511C91.8845 31.4553 91.8362 31.5108 91.7324 31.5108H89.417C89.4239 32.5517 89.8109 32.9614 90.7234 32.9614C91.1519 32.9614 91.4975 32.8987 91.7186 32.8572C91.8362 32.8363 91.8638 32.9126 91.8707 32.9614L91.8845 33.0306Z" fill="black"/>
<path fill-rule="evenodd" clip-rule="evenodd" d="M94.6425 29.7968C94.6217 29.9217 94.6079 29.9424 94.5112 29.9356C94.3522 29.901 94.1656 29.8939 93.986 29.8939C93.7578 29.8939 93.4122 29.9424 93.1979 30.0398V33.1069C93.1979 33.2111 93.1496 33.2597 93.0458 33.2597H92.8868C92.7832 33.2597 92.7349 33.2111 92.7349 33.1069V29.8799C92.7349 29.7968 92.7693 29.7344 92.88 29.6998C93.2118 29.5538 93.578 29.5123 93.9513 29.5123C94.2209 29.5123 94.4005 29.5331 94.5665 29.5677C94.677 29.5886 94.6701 29.6441 94.6495 29.7551L94.6425 29.7968Z" fill="black"/>
<path fill-rule="evenodd" clip-rule="evenodd" d="M95.4513 32.2534C95.4513 32.7948 95.8314 32.996 96.5018 32.996C96.9237 32.996 97.2346 32.9125 97.359 32.864V31.6566C97.2208 31.5803 96.8613 31.4763 96.4396 31.4763C95.7762 31.4763 95.4513 31.7328 95.4513 32.2048V32.2534ZM97.359 31.3236V30.588C97.359 30.1645 97.1517 29.88 96.4743 29.88C96.1148 29.88 95.6448 29.9496 95.4236 29.9911C95.3062 30.012 95.2923 29.9842 95.2646 29.8732L95.2509 29.8175C95.2232 29.6927 95.2715 29.6581 95.3753 29.6372C95.6726 29.5678 96.2186 29.5121 96.5779 29.5121C97.5042 29.5121 97.8221 29.88 97.8221 30.588V32.9543C97.8221 33.0652 97.8015 33.1 97.6702 33.1348C97.4628 33.2179 97.0273 33.3291 96.4743 33.3291C95.6171 33.3291 94.9606 33.0861 94.9606 32.2742V32.177C94.9606 31.5178 95.4513 31.15 96.3291 31.15C96.7025 31.15 97.0273 31.2124 97.359 31.3236Z" fill="black"/>
<path fill-rule="evenodd" clip-rule="evenodd" d="M101.133 29.8107C101.119 29.9077 101.098 29.9356 101.015 29.9286C100.711 29.8938 100.628 29.8801 100.324 29.8801C99.4881 29.8801 99.1355 30.4074 99.1355 31.3651V31.4832C99.1355 32.4617 99.5087 32.9614 100.359 32.9614C100.649 32.9614 100.857 32.9335 101.036 32.9057C101.126 32.8918 101.14 32.982 101.147 33.0306L101.161 33.1139C101.175 33.2111 101.14 33.2389 101.043 33.2527C100.746 33.3014 100.483 33.329 100.269 33.329C99.1217 33.329 98.6448 32.6905 98.6448 31.4692V31.3651C98.6448 30.1786 99.1356 29.5122 100.235 29.5122C100.573 29.5122 100.753 29.5331 101.036 29.5816C101.119 29.5955 101.168 29.6234 101.154 29.7274L101.133 29.8107Z" fill="black"/>
<path fill-rule="evenodd" clip-rule="evenodd" d="M101.983 29.9495H101.735C101.631 29.9495 101.582 29.901 101.582 29.7968V29.7343C101.582 29.6303 101.631 29.5816 101.735 29.5816H101.983V28.9431C101.983 28.8391 102.032 28.7904 102.135 28.7904H102.294C102.398 28.7904 102.446 28.8391 102.446 28.9431V29.5816H103.103C103.214 29.5816 103.255 29.6303 103.255 29.7343V29.7968C103.255 29.901 103.214 29.9495 103.103 29.9495H102.446V32.3157C102.446 32.6559 102.557 32.8918 102.923 32.8918C103.013 32.8918 103.145 32.878 103.276 32.8432C103.338 32.8363 103.38 32.8918 103.38 32.989V33.0584C103.38 33.1626 103.373 33.1902 103.262 33.2041C103.131 33.2457 103.006 33.2596 102.875 33.2596C102.239 33.2596 101.983 32.9405 101.983 32.3157V29.9495Z" fill="black"/>
<path fill-rule="evenodd" clip-rule="evenodd" d="M105.045 33.0099C105.059 33.1069 105.066 33.1626 104.956 33.1972C104.831 33.2318 104.714 33.2596 104.582 33.2596C104.181 33.2596 103.946 33.0932 103.946 32.4756V29.7343C103.946 29.6303 103.995 29.5816 104.091 29.5816H104.251C104.354 29.5816 104.402 29.6303 104.402 29.7343V32.4756C104.402 32.7599 104.485 32.8917 104.693 32.8917C104.769 32.8917 104.873 32.8711 104.942 32.8502C104.997 32.8363 105.025 32.878 105.039 32.9613L105.045 33.0099ZM104.078 28.971C103.974 28.971 103.926 28.9224 103.926 28.8183V28.4506C103.926 28.3464 103.974 28.2979 104.078 28.2979H104.278C104.375 28.2979 104.423 28.3464 104.423 28.4506V28.8183C104.423 28.9224 104.375 28.971 104.278 28.971H104.078Z" fill="black"/>
<path fill-rule="evenodd" clip-rule="evenodd" d="M108.108 31.3582C108.108 30.4215 107.741 29.88 106.995 29.88C106.241 29.88 105.882 30.4215 105.882 31.3582V31.4763C105.882 32.3922 106.241 32.9613 106.995 32.9613C107.741 32.9613 108.108 32.3922 108.108 31.4763V31.3582ZM105.391 31.3582C105.391 30.1924 105.93 29.5122 106.995 29.5122C108.059 29.5122 108.598 30.1924 108.598 31.3582V31.4763C108.598 32.635 108.059 33.3291 106.995 33.3291C105.93 33.3291 105.391 32.635 105.391 31.4763V31.3582Z" fill="black"/>
<path fill-rule="evenodd" clip-rule="evenodd" d="M112.276 33.107C112.276 33.2112 112.227 33.2597 112.13 33.2597H111.971C111.868 33.2597 111.82 33.2112 111.82 33.107V30.8517C111.82 30.2826 111.564 29.9008 110.935 29.9008C110.561 29.9008 110.064 30.0327 109.884 30.1229V33.107C109.884 33.2112 109.836 33.2597 109.732 33.2597H109.573C109.469 33.2597 109.421 33.2112 109.421 33.107V30.0188C109.421 29.9148 109.469 29.8454 109.566 29.7968C109.849 29.6648 110.43 29.5123 110.969 29.5123C111.895 29.5123 112.276 30.0188 112.276 30.796V33.107Z" fill="black"/>
<path fill-rule="evenodd" clip-rule="evenodd" d="M119.775 33.107C119.775 33.2112 119.727 33.2597 119.623 33.2597H119.464C119.361 33.2597 119.312 33.2112 119.312 33.107V30.9002C119.312 30.3033 119.07 29.9008 118.448 29.9008C118.116 29.9008 117.681 30.0883 117.508 30.2202V33.107C117.508 33.2112 117.467 33.2597 117.363 33.2597H117.197C117.094 33.2597 117.045 33.2112 117.045 33.107V30.4908C117.045 30.1369 116.803 29.9008 116.174 29.9008C115.856 29.9008 115.414 30.0327 115.248 30.1229V33.107C115.248 33.2112 115.2 33.2597 115.096 33.2597H114.937C114.833 33.2597 114.785 33.2112 114.785 33.107V30.0188C114.785 29.9148 114.826 29.8454 114.93 29.8108C115.2 29.672 115.718 29.5123 116.216 29.5123C116.727 29.5123 117.073 29.6302 117.273 29.8384C117.619 29.658 118.082 29.5123 118.483 29.5123C119.395 29.5123 119.775 30.0466 119.775 30.8656V33.107Z" fill="black"/>
<path fill-rule="evenodd" clip-rule="evenodd" d="M121.02 32.2534C121.02 32.7948 121.4 32.996 122.07 32.996C122.492 32.996 122.803 32.9125 122.927 32.864V31.6566C122.789 31.5803 122.43 31.4763 122.008 31.4763C121.345 31.4763 121.02 31.7328 121.02 32.2048V32.2534ZM122.927 31.3236V30.588C122.927 30.1645 122.72 29.88 122.043 29.88C121.683 29.88 121.213 29.9496 120.992 29.9911C120.875 30.012 120.861 29.9842 120.833 29.8732L120.819 29.8175C120.792 29.6927 120.84 29.6581 120.944 29.6372C121.241 29.5678 121.787 29.5121 122.146 29.5121C123.073 29.5121 123.39 29.88 123.39 30.588V32.9543C123.39 33.0652 123.37 33.1 123.239 33.1348C123.031 33.2179 122.596 33.3291 122.043 33.3291C121.185 33.3291 120.529 33.0861 120.529 32.2742V32.177C120.529 31.5178 121.02 31.15 121.897 31.15C122.271 31.15 122.596 31.2124 122.927 31.3236Z" fill="black"/>
<path fill-rule="evenodd" clip-rule="evenodd" d="M124.414 29.9495H124.165C124.061 29.9495 124.013 29.901 124.013 29.7968V29.7343C124.013 29.6303 124.061 29.5816 124.165 29.5816H124.414V28.9431C124.414 28.8391 124.462 28.7904 124.566 28.7904H124.725C124.828 28.7904 124.877 28.8391 124.877 28.9431V29.5816H125.533C125.644 29.5816 125.685 29.6303 125.685 29.7343V29.7968C125.685 29.901 125.644 29.9495 125.533 29.9495H124.877V32.3157C124.877 32.6559 124.987 32.8918 125.354 32.8918C125.443 32.8918 125.575 32.878 125.706 32.8432C125.768 32.8363 125.81 32.8918 125.81 32.989V33.0584C125.81 33.1626 125.803 33.1902 125.692 33.2041C125.561 33.2457 125.437 33.2596 125.305 33.2596C124.669 33.2596 124.414 32.9405 124.414 32.3157V29.9495Z" fill="black"/>
<path fill-rule="evenodd" clip-rule="evenodd" d="M126.432 29.9495H126.183C126.079 29.9495 126.031 29.901 126.031 29.7968V29.7343C126.031 29.6303 126.079 29.5816 126.183 29.5816H126.432V28.9431C126.432 28.8391 126.48 28.7904 126.584 28.7904H126.743C126.847 28.7904 126.895 28.8391 126.895 28.9431V29.5816H127.551C127.662 29.5816 127.704 29.6303 127.704 29.7343V29.7968C127.704 29.901 127.662 29.9495 127.551 29.9495H126.895V32.3157C126.895 32.6559 127.006 32.8918 127.372 32.8918C127.462 32.8918 127.593 32.878 127.724 32.8432C127.787 32.8363 127.828 32.8918 127.828 32.989V33.0584C127.828 33.1626 127.821 33.1902 127.711 33.2041C127.579 33.2457 127.455 33.2596 127.324 33.2596C126.688 33.2596 126.432 32.9405 126.432 32.3157V29.9495Z" fill="black"/>
<path fill-rule="evenodd" clip-rule="evenodd" d="M128.706 31.1917H130.731C130.718 30.345 130.42 29.8801 129.736 29.8801C129.038 29.8801 128.741 30.338 128.706 31.1917ZM131.174 33.0306C131.194 33.1347 131.16 33.1902 131.063 33.2111C130.807 33.2735 130.393 33.329 129.957 33.329C128.789 33.329 128.215 32.7808 128.215 31.4762V31.3583C128.215 30.2132 128.658 29.5122 129.722 29.5122C131.091 29.5122 131.139 30.6226 131.167 31.2611L131.174 31.3511C131.174 31.4553 131.125 31.5108 131.022 31.5108H128.706C128.713 32.5517 129.1 32.9614 130.012 32.9614C130.441 32.9614 130.786 32.8987 131.008 32.8572C131.125 32.8363 131.153 32.9126 131.16 32.9614L131.174 33.0306Z" fill="black"/>
<path fill-rule="evenodd" clip-rule="evenodd" d="M133.932 29.7968C133.911 29.9217 133.897 29.9424 133.8 29.9356C133.641 29.901 133.455 29.8939 133.275 29.8939C133.047 29.8939 132.701 29.9424 132.487 30.0398V33.1069C132.487 33.2111 132.439 33.2597 132.335 33.2597H132.176C132.072 33.2597 132.024 33.2111 132.024 33.1069V29.8799C132.024 29.7968 132.059 29.7344 132.169 29.6998C132.501 29.5538 132.867 29.5123 133.241 29.5123C133.51 29.5123 133.69 29.5331 133.856 29.5677C133.966 29.5886 133.959 29.6441 133.939 29.7551L133.932 29.7968Z" fill="black"/>
<path fill-rule="evenodd" clip-rule="evenodd" d="M136.814 29.8246C136.8 29.9701 136.766 29.9773 136.676 29.9634C136.496 29.9286 136.316 29.8801 135.853 29.8801C135.314 29.8801 134.879 29.9701 134.879 30.4004C134.879 31.3374 136.945 30.7337 136.945 32.2672C136.945 32.9681 136.434 33.3292 135.549 33.3292C135.162 33.3292 134.734 33.2665 134.505 33.2318C134.381 33.218 134.36 33.1902 134.36 33.0653V33.0168C134.36 32.871 134.423 32.8502 134.526 32.8641C134.692 32.8917 135.107 32.9613 135.508 32.9613C136.282 32.9613 136.475 32.6559 136.475 32.2811C136.475 31.0459 134.416 31.705 134.416 30.4004C134.416 29.658 135.038 29.5122 135.777 29.5122C136.316 29.5122 136.621 29.5746 136.711 29.5955C136.807 29.6094 136.842 29.6371 136.828 29.7689L136.814 29.8246Z" fill="black"/>
<path fill-rule="evenodd" clip-rule="evenodd" d="M20.6481 7.0209H7.7815C7.34992 7.0209 6.99982 7.37221 6.99982 7.8057V11.6554C6.99982 11.977 7.06201 12.1541 7.21243 12.3052C8.3133 13.4104 10.5587 15.6646 11.66 16.7702C11.7304 16.8409 11.834 16.7965 11.834 16.7066V12.1504C11.834 12.0539 11.7561 11.9755 11.6598 11.9755H8.14303C7.91431 11.9755 7.72887 11.7893 7.72887 11.5597V8.16716C7.72887 7.93753 7.91431 7.75135 8.14303 7.75135H19.9373C20.1662 7.75135 20.3516 7.93753 20.3516 8.16716V11.56C20.3516 11.7895 20.1662 11.9755 19.9376 11.9755H16.4213C16.3248 11.9755 16.2467 12.0539 16.2467 12.1508V25.3663C16.2467 25.5957 16.0614 25.7817 15.8329 25.7817H12.3362C12.2444 25.7817 12.183 25.8964 12.248 25.9615C13.0135 26.7296 14.5539 28.2766 15.3361 29.0619C15.5463 29.273 15.8188 29.449 16.1706 29.449H19.5295C19.8475 29.449 20.1053 29.1902 20.1053 28.8709V20.9988C20.1053 20.902 20.1834 20.8236 20.2797 20.8236H20.6481C24.4224 20.8236 28.0874 18.5121 28.0874 13.8956C28.0874 9.78546 25.2656 7.0209 20.6481 7.0209Z" fill="url(#paint0_linear_66_830)"/>
</g>
</g>
<circle cx="363.302" cy="39.3023" r="2.30233" fill="#3047B0" fill-opacity="0.7"/>
<circle cx="363.302" cy="48.8954" r="2.30233" fill="#3047B0" fill-opacity="0.7"/>
<circle cx="363.302" cy="58.4884" r="2.30233" fill="#3047B0" fill-opacity="0.7"/>
<circle cx="363.302" cy="67.6977" r="2.30233" fill="#3047B0" fill-opacity="0.7"/>
<circle cx="373.279" cy="39.3023" r="2.30233" fill="#3047B0" fill-opacity="0.7"/>
<circle cx="373.279" cy="48.8954" r="2.30233" fill="#3047B0" fill-opacity="0.7"/>
<circle cx="373.279" cy="58.4884" r="2.30233" fill="#3047B0" fill-opacity="0.7"/>
<circle cx="373.279" cy="67.6977" r="2.30233" fill="#3047B0" fill-opacity="0.7"/>
<circle cx="382.488" cy="39.3023" r="2.30233" fill="#3047B0" fill-opacity="0.7"/>
<circle cx="382.488" cy="48.8954" r="2.30233" fill="#3047B0" fill-opacity="0.7"/>
<circle cx="382.488" cy="58.4884" r="2.30233" fill="#3047B0" fill-opacity="0.7"/>
<circle cx="382.488" cy="67.6977" r="2.30233" fill="#3047B0" fill-opacity="0.7"/>
<circle cx="391.698" cy="39.3023" r="2.30233" fill="#3047B0" fill-opacity="0.7"/>
<circle cx="391.698" cy="48.8954" r="2.30233" fill="#3047B0" fill-opacity="0.7"/>
<circle cx="391.698" cy="58.4884" r="2.30233" fill="#3047B0" fill-opacity="0.7"/>
<circle cx="391.698" cy="67.6977" r="2.30233" fill="#3047B0" fill-opacity="0.7"/>
<path fill-rule="evenodd" clip-rule="evenodd" d="M0 149.945C0.755193 149.982 1.51511 150 2.27934 150C27.9606 150 48.7793 129.181 48.7793 103.5C48.7793 77.8188 27.9606 57 2.27934 57C1.51511 57 0.755193 57.0184 0 57.0549V149.945Z" fill="#3047B0"/>
<circle cx="28" cy="144" r="16.5" stroke="#0099FF" stroke-width="3"/>
<defs>
<linearGradient id="paint0_linear_66_830" x1="7" y1="13.5" x2="28" y2="11.5" gradientUnits="userSpaceOnUse">
<stop stop-color="#3047B0"/>
<stop offset="1" stop-color="#0099FF"/>
</linearGradient>
<clipPath id="clip0_66_830">
<rect width="130" height="26.3291" fill="white" transform="translate(7 7)"/>
</clipPath>
</defs>
</svg>
