<svg width="1100" height="645" viewBox="0 0 1100 645" fill="none" xmlns="http://www.w3.org/2000/svg">
<g clip-path="url(#clip0_36_150)">
<rect width="1100" height="645" fill="white"/>
<rect width="1237" height="645" fill="#0087FF" fill-opacity="0.01"/>
<g clip-path="url(#clip1_36_150)">
<path fill-rule="evenodd" clip-rule="evenodd" d="M65.5286 36.1517H61.1311V32.6035H73.6173V36.1517H69.2196V51.138H65.5286V36.1517Z" fill="black"/>
<path fill-rule="evenodd" clip-rule="evenodd" d="M80.1849 43.1932C80.1849 41.343 79.641 40.3362 78.2544 40.3362C76.8677 40.3362 76.2152 41.4244 76.0793 43.1932H80.1849ZM72.4355 44.2274C72.4355 40.0094 74.5563 37.3428 78.2001 37.3428C81.9251 37.3428 83.9643 40.3362 83.5294 45.6151H76.2152C76.5142 47.5196 77.6562 48.2817 79.5324 48.2817C80.6201 48.2817 81.6532 48.1456 82.7409 47.7101V50.4311C81.6805 50.9209 80.4841 51.1114 79.0428 51.1114C74.7739 51.1114 72.4355 48.4994 72.4355 44.2274Z" fill="black"/>
<mask id="mask0_36_150" style="mask-type:alpha" maskUnits="userSpaceOnUse" x="20" y="20" width="213" height="43">
<path d="M20 63H232.911V20.0344H20V63Z" fill="white"/>
</mask>
<g mask="url(#mask0_36_150)">
<path fill-rule="evenodd" clip-rule="evenodd" d="M85.2893 50.6768H88.9327V30.813H85.2893V50.6768Z" fill="black"/>
<path fill-rule="evenodd" clip-rule="evenodd" d="M98.3045 43.1124C98.3045 41.2622 97.7607 40.2554 96.374 40.2554C94.9874 40.2554 94.3349 41.3436 94.1989 43.1124H98.3045ZM90.5552 44.1466C90.5552 39.9286 92.676 37.262 96.3197 37.262C100.045 37.262 102.084 40.2554 101.649 45.5342H94.3349C94.6338 47.4388 95.7758 48.2009 97.652 48.2009C98.7397 48.2009 99.7728 48.0648 100.861 47.6293V50.3502C99.8001 50.8401 98.6038 51.0309 97.1625 51.0309C92.8936 51.0309 90.5552 48.4186 90.5552 44.1466Z" fill="black"/>
<path fill-rule="evenodd" clip-rule="evenodd" d="M106.935 46.5137C107.371 47.3301 108.05 47.847 108.92 47.847C110.47 47.847 111.068 46.5137 111.068 44.1466C111.068 41.7791 110.47 40.4458 108.92 40.4458C108.05 40.4458 107.371 40.9627 106.935 41.7791V46.5137ZM109.981 51.0309C108.513 51.0309 107.561 50.4049 106.935 49.6973V56.6633H103.292V37.6158H106.555V38.9491C107.153 38.1054 108.213 37.262 109.899 37.262C113.407 37.262 114.685 40.4728 114.685 44.1466C114.685 48.1735 113.216 51.0309 109.981 51.0309Z" fill="black"/>
<path fill-rule="evenodd" clip-rule="evenodd" d="M123.534 43.1124C123.534 41.2622 122.991 40.2554 121.604 40.2554C120.217 40.2554 119.565 41.3436 119.429 43.1124H123.534ZM115.785 44.1466C115.785 39.9286 117.906 37.262 121.55 37.262C125.275 37.262 127.314 40.2554 126.879 45.5342H119.565C119.864 47.4388 121.006 48.2009 122.882 48.2009C123.97 48.2009 125.003 48.0648 126.09 47.6293V50.3502C125.03 50.8401 123.834 51.0309 122.392 51.0309C118.124 51.0309 115.785 48.4186 115.785 44.1466Z" fill="black"/>
<path fill-rule="evenodd" clip-rule="evenodd" d="M128.343 37.6157H131.605V39.602C132.394 37.9422 133.862 37.1805 135.82 37.3436V41.0444C134.08 40.8266 132.693 41.4526 131.986 43.2755V50.677H128.343V37.6157Z" fill="black"/>
<path fill-rule="evenodd" clip-rule="evenodd" d="M138.849 40.7722H137.136V37.6157H138.849V35.9015C138.849 32.5002 140.997 31.2756 143.335 31.2756C144.287 31.2756 144.967 31.4117 145.701 31.7112V34.7043C145.266 34.5138 144.749 34.4321 144.233 34.4321C143.199 34.4321 142.492 34.922 142.492 36.0376V37.6157H145.103V40.7722H142.492V50.6769H138.849V40.7722Z" fill="black"/>
<path fill-rule="evenodd" clip-rule="evenodd" d="M149.271 44.1464C149.271 46.5409 149.896 47.8468 151.473 47.8468C153.023 47.8468 153.648 46.5409 153.648 44.1464C153.648 41.7516 153.023 40.4186 151.473 40.4186C149.896 40.4186 149.271 41.7516 149.271 44.1464ZM157.319 44.1464C157.319 48.4458 155.225 51.0307 151.473 51.0307C147.694 51.0307 145.6 48.4458 145.6 44.1464C145.6 39.847 147.694 37.2621 151.473 37.2621C155.225 37.2621 157.319 39.8197 157.319 44.1464Z" fill="black"/>
<path fill-rule="evenodd" clip-rule="evenodd" d="M158.63 37.6157H161.892V39.602C162.681 37.9422 164.149 37.1805 166.107 37.3436V41.0444C164.367 40.8266 162.98 41.4526 162.273 43.2755V50.677H158.63V37.6157Z" fill="black"/>
<path fill-rule="evenodd" clip-rule="evenodd" d="M184.538 41.4525V50.6769H180.949V42.2142C180.949 41.153 180.46 40.6361 179.589 40.6361C178.828 40.6361 178.23 41.0713 177.768 41.806V50.6769H174.206V42.2142C174.206 41.153 173.689 40.6361 172.846 40.6361C172.112 40.6361 171.487 41.0713 171.024 41.8607V50.6769H167.435V37.6157H170.698V38.8402C171.46 37.8608 172.574 37.2618 173.988 37.2618C175.402 37.2618 176.463 37.8608 177.088 38.8402C178.04 37.7247 179.209 37.2618 180.623 37.2618C183.26 37.2618 184.538 39.1124 184.538 41.4525Z" fill="black"/>
<path fill-rule="evenodd" clip-rule="evenodd" d="M193.152 47.7925V45.2893C192.689 45.1803 192.282 45.1259 191.847 45.1259C190.514 45.1259 189.617 45.5615 189.617 46.8674C189.617 48.0373 190.324 48.5543 191.194 48.5543C192.01 48.5543 192.581 48.3098 193.152 47.7925ZM197.992 48.0647V50.6226C197.448 50.7856 196.904 50.8673 196.251 50.8673C195.245 50.8673 194.321 50.5679 193.777 49.8605C192.798 50.6496 191.629 51.0308 190.269 51.0308C188.04 51.0308 186.109 49.7245 186.109 46.9762C186.109 44.1735 188.149 42.7858 191.058 42.7858C191.765 42.7858 192.363 42.8675 193.152 43.0309V42.3232C193.152 41.2621 192.662 40.337 190.868 40.337C189.399 40.337 188.013 40.6905 186.925 41.153V38.0239C188.121 37.5886 189.726 37.2618 191.221 37.2618C194.838 37.2618 196.714 38.8676 196.714 42.5954V47.2483C196.714 47.9013 197.04 48.119 197.557 48.119C197.692 48.119 197.856 48.092 197.992 48.0647Z" fill="black"/>
<path fill-rule="evenodd" clip-rule="evenodd" d="M199.338 37.6158H202.601V38.8404C203.335 37.9696 204.423 37.262 206.136 37.262C208.202 37.262 210.078 38.7043 210.078 41.4253V50.677H206.435V42.2143C206.435 41.0988 205.891 40.6362 204.939 40.6362C203.988 40.6362 203.335 41.2622 202.982 41.9422V50.677H199.338V37.6158Z" fill="black"/>
<path fill-rule="evenodd" clip-rule="evenodd" d="M211.598 44.2551C211.598 39.7656 214.209 37.2621 217.798 37.2621C218.913 37.2621 219.756 37.4252 220.653 37.8607V40.9355C219.973 40.5817 219.266 40.3913 218.369 40.3913C216.465 40.3913 215.269 41.7789 215.269 44.1464C215.269 46.5138 216.33 47.8468 218.206 47.8468C219.32 47.8468 220.109 47.602 220.789 47.3029V50.4591C219.973 50.8403 218.967 51.0307 217.635 51.0307C214.127 51.0307 211.598 48.6089 211.598 44.2551Z" fill="black"/>
<path fill-rule="evenodd" clip-rule="evenodd" d="M229.508 43.1124C229.508 41.2622 228.964 40.2554 227.578 40.2554C226.191 40.2554 225.538 41.3436 225.402 43.1124H229.508ZM221.759 44.1466C221.759 39.9286 223.88 37.262 227.523 37.262C231.248 37.262 233.288 40.2554 232.853 45.5342H225.538C225.837 47.4388 226.979 48.2009 228.856 48.2009C229.943 48.2009 230.976 48.0648 232.064 47.6293V50.3502C231.004 50.8401 229.807 51.0309 228.366 51.0309C224.097 51.0309 221.759 48.4186 221.759 44.1466Z" fill="black"/>
<path fill-rule="evenodd" clip-rule="evenodd" d="M117.074 59.5091H120.392C120.37 58.1264 119.882 57.3671 118.761 57.3671C117.617 57.3671 117.13 58.115 117.074 59.5091ZM121.117 62.5124C121.151 62.6825 121.094 62.7731 120.936 62.8072C120.517 62.9092 119.837 62.9998 119.124 62.9998C117.21 62.9998 116.27 62.1045 116.27 59.9738V59.7813C116.27 57.9111 116.995 56.7664 118.739 56.7664C120.981 56.7664 121.06 58.5797 121.106 59.6225L121.117 59.7696C121.117 59.9398 121.038 60.0304 120.868 60.0304H117.074C117.085 61.7304 117.719 62.3994 119.214 62.3994C119.917 62.3994 120.483 62.2971 120.845 62.2292C121.038 62.1951 121.083 62.3198 121.094 62.3994L121.117 62.5124Z" fill="black"/>
<path fill-rule="evenodd" clip-rule="evenodd" d="M122.929 61.2431C122.929 62.1274 123.552 62.4561 124.651 62.4561C125.342 62.4561 125.851 62.3197 126.055 62.2404V60.2686C125.828 60.1439 125.24 59.974 124.549 59.974C123.462 59.974 122.929 60.393 122.929 61.1639V61.2431ZM126.055 59.7246V58.5234C126.055 57.8317 125.715 57.367 124.605 57.367C124.016 57.367 123.246 57.4806 122.884 57.5485C122.691 57.5826 122.669 57.5372 122.623 57.3559L122.601 57.265C122.556 57.0611 122.635 57.0046 122.805 56.9705C123.292 56.8571 124.186 56.7662 124.775 56.7662C126.293 56.7662 126.814 57.367 126.814 58.5234V62.3879C126.814 62.5691 126.78 62.6259 126.565 62.6827C126.225 62.8185 125.511 63 124.605 63C123.201 63 122.125 62.6032 122.125 61.2772V61.1184C122.125 60.0419 122.929 59.4411 124.368 59.4411C124.979 59.4411 125.511 59.5431 126.055 59.7246Z" fill="black"/>
<path fill-rule="evenodd" clip-rule="evenodd" d="M132.238 57.2538C132.216 57.4123 132.182 57.4577 132.046 57.4464C131.548 57.3896 131.412 57.3671 130.913 57.3671C129.543 57.3671 128.965 58.2284 128.965 59.7923V59.9852C128.965 61.5833 129.577 62.3994 130.97 62.3994C131.446 62.3994 131.785 62.3539 132.08 62.3084C132.227 62.2857 132.25 62.4331 132.261 62.5124L132.284 62.6484C132.306 62.8072 132.25 62.8527 132.091 62.8751C131.604 62.9547 131.174 62.9998 130.823 62.9998C128.943 62.9998 128.161 61.9571 128.161 59.9625V59.7923C128.161 57.8546 128.965 56.7664 130.766 56.7664C131.321 56.7664 131.615 56.8004 132.08 56.8797C132.216 56.9024 132.295 56.9479 132.272 57.1177L132.238 57.2538Z" fill="black"/>
<path fill-rule="evenodd" clip-rule="evenodd" d="M138.196 62.6373C138.196 62.8074 138.116 62.8867 137.958 62.8867H137.697C137.528 62.8867 137.448 62.8074 137.448 62.6373V58.954C137.448 58.0246 137.029 57.4011 135.999 57.4011C135.387 57.4011 134.572 57.6164 134.277 57.7638V62.6373C134.277 62.8074 134.198 62.8867 134.028 62.8867H133.768C133.598 62.8867 133.518 62.8074 133.518 62.6373V54.6924C133.518 54.5225 133.598 54.443 133.768 54.443H134.028C134.198 54.443 134.277 54.5225 134.277 54.6924V57.1403C134.866 56.9253 135.58 56.7665 136.202 56.7665C137.618 56.7665 138.196 57.6053 138.196 58.8858V62.6373Z" fill="black"/>
<path fill-rule="evenodd" clip-rule="evenodd" d="M144.13 62.4787C144.153 62.6372 144.164 62.7281 143.983 62.7846C143.779 62.8411 143.587 62.8866 143.371 62.8866C142.715 62.8866 142.329 62.6147 142.329 61.6061V57.1292C142.329 56.9593 142.409 56.8798 142.567 56.8798H142.828C142.998 56.8798 143.077 56.9593 143.077 57.1292V61.6061C143.077 62.0705 143.213 62.2858 143.553 62.2858C143.677 62.2858 143.847 62.252 143.96 62.2179C144.051 62.1952 144.096 62.2634 144.119 62.3994L144.13 62.4787ZM142.545 55.8825C142.375 55.8825 142.295 55.8032 142.295 55.6331V55.0326C142.295 54.8624 142.375 54.7832 142.545 54.7832H142.873C143.032 54.7832 143.111 54.8624 143.111 55.0326V55.6331C143.111 55.8032 143.032 55.8825 142.873 55.8825H142.545Z" fill="black"/>
<path fill-rule="evenodd" clip-rule="evenodd" d="M149.668 62.6372C149.668 62.8074 149.589 62.8866 149.431 62.8866H149.17C149 62.8866 148.921 62.8074 148.921 62.6372V58.954C148.921 58.0245 148.502 57.401 147.471 57.401C146.86 57.401 146.044 57.6163 145.75 57.7638V62.6372C145.75 62.8074 145.67 62.8866 145.501 62.8866H145.24C145.07 62.8866 144.991 62.8074 144.991 62.6372V57.5936C144.991 57.4238 145.07 57.3104 145.229 57.2312C145.693 57.0156 146.645 56.7665 147.528 56.7665C149.045 56.7665 149.668 57.5936 149.668 58.863V62.6372Z" fill="black"/>
<path fill-rule="evenodd" clip-rule="evenodd" d="M151.311 57.4806H150.903C150.733 57.4806 150.654 57.4013 150.654 57.2312V57.1292C150.654 56.9593 150.733 56.8798 150.903 56.8798H151.311V55.837C151.311 55.6672 151.39 55.5876 151.56 55.5876H151.82C151.99 55.5876 152.07 55.6672 152.07 55.837V56.8798H153.145C153.327 56.8798 153.395 56.9593 153.395 57.1292V57.2312C153.395 57.4013 153.327 57.4806 153.145 57.4806H152.07V61.345C152.07 61.9007 152.251 62.2858 152.851 62.2858C152.998 62.2858 153.213 62.2634 153.429 62.2066C153.53 62.1952 153.599 62.2858 153.599 62.4446V62.5579C153.599 62.7281 153.587 62.7733 153.406 62.796C153.191 62.8639 152.987 62.8866 152.772 62.8866C151.73 62.8866 151.311 62.3654 151.311 61.345V57.4806Z" fill="black"/>
<path fill-rule="evenodd" clip-rule="evenodd" d="M155.037 59.5091H158.355C158.333 58.1264 157.846 57.3671 156.724 57.3671C155.581 57.3671 155.094 58.115 155.037 59.5091ZM159.08 62.5124C159.114 62.6825 159.057 62.7731 158.899 62.8072C158.48 62.9092 157.801 62.9998 157.087 62.9998C155.173 62.9998 154.233 62.1045 154.233 59.9738V59.7813C154.233 57.9111 154.958 56.7664 156.702 56.7664C158.944 56.7664 159.024 58.5797 159.069 59.6225L159.08 59.7696C159.08 59.9398 159.001 60.0304 158.831 60.0304H155.037C155.048 61.7304 155.682 62.3994 157.177 62.3994C157.88 62.3994 158.446 62.2971 158.808 62.2292C159.001 62.1951 159.046 62.3198 159.057 62.3994L159.08 62.5124Z" fill="black"/>
<path fill-rule="evenodd" clip-rule="evenodd" d="M163.599 57.2312C163.565 57.4351 163.542 57.4689 163.384 57.4579C163.123 57.4013 162.817 57.3897 162.523 57.3897C162.149 57.3897 161.583 57.4689 161.232 57.628V62.6372C161.232 62.8074 161.153 62.8866 160.983 62.8866H160.722C160.552 62.8866 160.473 62.8074 160.473 62.6372V57.3669C160.473 57.2312 160.53 57.1292 160.711 57.0727C161.255 56.8344 161.855 56.7665 162.466 56.7665C162.908 56.7665 163.202 56.8006 163.474 56.8571C163.655 56.8912 163.644 56.9818 163.61 57.163L163.599 57.2312Z" fill="black"/>
<path fill-rule="evenodd" clip-rule="evenodd" d="M164.924 61.2431C164.924 62.1274 165.547 62.4561 166.645 62.4561C167.337 62.4561 167.846 62.3197 168.05 62.2404V60.2686C167.823 60.1439 167.234 59.974 166.544 59.974C165.456 59.974 164.924 60.393 164.924 61.1639V61.2431ZM168.05 59.7246V58.5234C168.05 57.8317 167.71 57.367 166.6 57.367C166.011 57.367 165.241 57.4806 164.879 57.5485C164.686 57.5826 164.664 57.5372 164.618 57.3559L164.596 57.265C164.55 57.0611 164.63 57.0046 164.8 56.9705C165.287 56.8571 166.181 56.7662 166.77 56.7662C168.288 56.7662 168.809 57.367 168.809 58.5234V62.3879C168.809 62.5691 168.775 62.6259 168.56 62.6827C168.22 62.8185 167.506 63 166.6 63C165.196 63 164.12 62.6032 164.12 61.2772V61.1184C164.12 60.0419 164.924 59.4411 166.362 59.4411C166.974 59.4411 167.506 59.5431 168.05 59.7246Z" fill="black"/>
<path fill-rule="evenodd" clip-rule="evenodd" d="M174.234 57.2538C174.211 57.4123 174.177 57.4577 174.041 57.4464C173.543 57.3896 173.407 57.3671 172.909 57.3671C171.538 57.3671 170.961 58.2284 170.961 59.7923V59.9852C170.961 61.5833 171.572 62.3994 172.965 62.3994C173.441 62.3994 173.781 62.3539 174.075 62.3084C174.222 62.2857 174.245 62.4331 174.256 62.5124L174.279 62.6484C174.301 62.8072 174.245 62.8527 174.086 62.8751C173.599 62.9547 173.169 62.9998 172.818 62.9998C170.938 62.9998 170.156 61.9571 170.156 59.9625V59.7923C170.156 57.8546 170.961 56.7664 172.761 56.7664C173.316 56.7664 173.611 56.8004 174.075 56.8797C174.211 56.9024 174.29 56.9479 174.267 57.1177L174.234 57.2538Z" fill="black"/>
<path fill-rule="evenodd" clip-rule="evenodd" d="M175.627 57.4806H175.219C175.049 57.4806 174.97 57.4013 174.97 57.2312V57.1292C174.97 56.9593 175.049 56.8798 175.219 56.8798H175.627V55.837C175.627 55.6672 175.706 55.5876 175.876 55.5876H176.136C176.306 55.5876 176.385 55.6672 176.385 55.837V56.8798H177.461C177.642 56.8798 177.71 56.9593 177.71 57.1292V57.2312C177.71 57.4013 177.642 57.4806 177.461 57.4806H176.385V61.345C176.385 61.9007 176.567 62.2858 177.167 62.2858C177.314 62.2858 177.529 62.2634 177.744 62.2066C177.846 62.1952 177.914 62.2858 177.914 62.4446V62.5579C177.914 62.7281 177.903 62.7733 177.722 62.796C177.506 62.8639 177.303 62.8866 177.087 62.8866C176.045 62.8866 175.627 62.3654 175.627 61.345V57.4806Z" fill="black"/>
<path fill-rule="evenodd" clip-rule="evenodd" d="M180.644 62.4787C180.666 62.6372 180.678 62.7281 180.497 62.7846C180.292 62.8411 180.1 62.8866 179.885 62.8866C179.228 62.8866 178.843 62.6147 178.843 61.6061V57.1292C178.843 56.9593 178.922 56.8798 179.081 56.8798H179.341C179.511 56.8798 179.59 56.9593 179.59 57.1292V61.6061C179.59 62.0705 179.726 62.2858 180.066 62.2858C180.191 62.2858 180.361 62.252 180.474 62.2179C180.564 62.1952 180.61 62.2634 180.632 62.3994L180.644 62.4787ZM179.058 55.8825C178.888 55.8825 178.809 55.8032 178.809 55.6331V55.0326C178.809 54.8624 178.888 54.7832 179.058 54.7832H179.386C179.545 54.7832 179.624 54.8624 179.624 55.0326V55.6331C179.624 55.8032 179.545 55.8825 179.386 55.8825H179.058Z" fill="black"/>
<path fill-rule="evenodd" clip-rule="evenodd" d="M185.661 59.7813C185.661 58.2514 185.061 57.3671 183.838 57.3671C182.603 57.3671 182.014 58.2514 182.014 59.7813V59.9742C182.014 61.4699 182.603 62.3994 183.838 62.3994C185.061 62.3994 185.661 61.4699 185.661 59.9742V59.7813ZM181.21 59.7813C181.21 57.8773 182.094 56.7664 183.838 56.7664C185.582 56.7664 186.465 57.8773 186.465 59.7813V59.9742C186.465 61.8665 185.582 63.0001 183.838 63.0001C182.094 63.0001 181.21 61.8665 181.21 59.9742V59.7813Z" fill="black"/>
<path fill-rule="evenodd" clip-rule="evenodd" d="M192.49 62.6372C192.49 62.8074 192.411 62.8866 192.252 62.8866H191.992C191.822 62.8866 191.743 62.8074 191.743 62.6372V58.954C191.743 58.0245 191.323 57.401 190.293 57.401C189.681 57.401 188.866 57.6163 188.572 57.7638V62.6372C188.572 62.8074 188.492 62.8866 188.322 62.8866H188.062C187.892 62.8866 187.813 62.8074 187.813 62.6372V57.5936C187.813 57.4238 187.892 57.3104 188.051 57.2312C188.515 57.0156 189.466 56.7665 190.35 56.7665C191.867 56.7665 192.49 57.5936 192.49 58.863V62.6372Z" fill="black"/>
<path fill-rule="evenodd" clip-rule="evenodd" d="M204.778 62.6372C204.778 62.8074 204.699 62.8866 204.529 62.8866H204.268C204.099 62.8866 204.019 62.8074 204.019 62.6372V59.0332C204.019 58.0583 203.623 57.401 202.604 57.401C202.06 57.401 201.347 57.7073 201.064 57.9226V62.6372C201.064 62.8074 200.995 62.8866 200.826 62.8866H200.554C200.384 62.8866 200.305 62.8074 200.305 62.6372V58.3645C200.305 57.7865 199.908 57.401 198.878 57.401C198.357 57.401 197.632 57.6163 197.36 57.7638V62.6372C197.36 62.8074 197.281 62.8866 197.111 62.8866H196.851C196.681 62.8866 196.601 62.8074 196.601 62.6372V57.5936C196.601 57.4238 196.669 57.3104 196.839 57.2539C197.281 57.0272 198.13 56.7665 198.946 56.7665C199.784 56.7665 200.35 56.9591 200.678 57.2991C201.245 57.0045 202.003 56.7665 202.66 56.7665C204.155 56.7665 204.778 57.6391 204.778 58.9767V62.6372Z" fill="black"/>
<path fill-rule="evenodd" clip-rule="evenodd" d="M206.817 61.2431C206.817 62.1274 207.44 62.4561 208.538 62.4561C209.229 62.4561 209.739 62.3197 209.942 62.2404V60.2686C209.716 60.1439 209.127 59.974 208.436 59.974C207.349 59.974 206.817 60.393 206.817 61.1639V61.2431ZM209.942 59.7246V58.5234C209.942 57.8317 209.603 57.367 208.493 57.367C207.904 57.367 207.134 57.4806 206.771 57.5485C206.579 57.5826 206.556 57.5372 206.511 57.3559L206.488 57.265C206.443 57.0611 206.522 57.0046 206.692 56.9705C207.179 56.8571 208.074 56.7662 208.663 56.7662C210.18 56.7662 210.701 57.367 210.701 58.5234V62.3879C210.701 62.5691 210.667 62.6259 210.452 62.6827C210.112 62.8185 209.399 63 208.493 63C207.088 63 206.013 62.6032 206.013 61.2772V61.1184C206.013 60.0419 206.817 59.4411 208.255 59.4411C208.867 59.4411 209.399 59.5431 209.942 59.7246Z" fill="black"/>
<path fill-rule="evenodd" clip-rule="evenodd" d="M212.377 57.4806H211.97C211.8 57.4806 211.721 57.4013 211.721 57.2312V57.1292C211.721 56.9593 211.8 56.8798 211.97 56.8798H212.377V55.837C212.377 55.6672 212.457 55.5876 212.627 55.5876H212.887C213.057 55.5876 213.136 55.6672 213.136 55.837V56.8798H214.212C214.393 56.8798 214.461 56.9593 214.461 57.1292V57.2312C214.461 57.4013 214.393 57.4806 214.212 57.4806H213.136V61.345C213.136 61.9007 213.318 62.2858 213.918 62.2858C214.065 62.2858 214.28 62.2634 214.495 62.2066C214.597 62.1952 214.665 62.2858 214.665 62.4446V62.5579C214.665 62.7281 214.654 62.7733 214.472 62.796C214.257 62.8639 214.054 62.8866 213.838 62.8866C212.796 62.8866 212.377 62.3654 212.377 61.345V57.4806Z" fill="black"/>
<path fill-rule="evenodd" clip-rule="evenodd" d="M215.685 57.4806H215.277C215.107 57.4806 215.028 57.4013 215.028 57.2312V57.1292C215.028 56.9593 215.107 56.8798 215.277 56.8798H215.685V55.837C215.685 55.6672 215.764 55.5876 215.934 55.5876H216.194C216.364 55.5876 216.443 55.6672 216.443 55.837V56.8798H217.519C217.7 56.8798 217.768 56.9593 217.768 57.1292V57.2312C217.768 57.4013 217.7 57.4806 217.519 57.4806H216.443V61.345C216.443 61.9007 216.625 62.2858 217.225 62.2858C217.372 62.2858 217.587 62.2634 217.802 62.2066C217.904 62.1952 217.972 62.2858 217.972 62.4446V62.5579C217.972 62.7281 217.961 62.7733 217.78 62.796C217.564 62.8639 217.361 62.8866 217.146 62.8866C216.104 62.8866 215.685 62.3654 215.685 61.345V57.4806Z" fill="black"/>
<path fill-rule="evenodd" clip-rule="evenodd" d="M219.411 59.5091H222.729C222.706 58.1264 222.219 57.3671 221.098 57.3671C219.954 57.3671 219.467 58.115 219.411 59.5091ZM223.454 62.5124C223.488 62.6825 223.431 62.7731 223.273 62.8072C222.853 62.9092 222.174 62.9998 221.461 62.9998C219.547 62.9998 218.607 62.1045 218.607 59.9738V59.7813C218.607 57.9111 219.331 56.7664 221.076 56.7664C223.318 56.7664 223.397 58.5797 223.442 59.6225L223.454 59.7696C223.454 59.9398 223.375 60.0304 223.205 60.0304H219.411C219.422 61.7304 220.056 62.3994 221.551 62.3994C222.253 62.3994 222.819 62.2971 223.182 62.2292C223.375 62.1951 223.42 62.3198 223.431 62.3994L223.454 62.5124Z" fill="black"/>
<path fill-rule="evenodd" clip-rule="evenodd" d="M227.973 57.2312C227.939 57.4351 227.916 57.4689 227.758 57.4579C227.497 57.4013 227.191 57.3897 226.897 57.3897C226.523 57.3897 225.957 57.4689 225.606 57.628V62.6372C225.606 62.8074 225.527 62.8866 225.357 62.8866H225.096C224.926 62.8866 224.847 62.8074 224.847 62.6372V57.3669C224.847 57.2312 224.904 57.1292 225.085 57.0727C225.629 56.8344 226.229 56.7665 226.84 56.7665C227.282 56.7665 227.576 56.8006 227.848 56.8571C228.029 56.8912 228.018 56.9818 227.984 57.163L227.973 57.2312Z" fill="black"/>
<path fill-rule="evenodd" clip-rule="evenodd" d="M232.695 57.2765C232.673 57.5143 232.616 57.5259 232.469 57.5032C232.174 57.4464 231.88 57.3671 231.121 57.3671C230.238 57.3671 229.524 57.5142 229.524 58.217C229.524 59.7472 232.911 58.7613 232.911 61.2657C232.911 62.4104 232.072 63.0001 230.623 63.0001C229.989 63.0001 229.286 62.8979 228.913 62.841C228.709 62.8186 228.675 62.7732 228.675 62.5692V62.49C228.675 62.2519 228.777 62.2178 228.947 62.2406C229.219 62.2857 229.898 62.3994 230.555 62.3994C231.823 62.3994 232.141 61.9006 232.141 61.2884C232.141 59.2711 228.766 60.3476 228.766 58.217C228.766 57.0044 229.785 56.7664 230.997 56.7664C231.88 56.7664 232.378 56.8683 232.526 56.9024C232.684 56.9252 232.741 56.9703 232.718 57.1856L232.695 57.2765Z" fill="black"/>
<path fill-rule="evenodd" clip-rule="evenodd" d="M42.362 20.0343H21.2805C20.5734 20.0343 19.9998 20.608 19.9998 21.316V27.6032C19.9998 28.1284 20.1017 28.4178 20.3481 28.6644C22.1519 30.4695 25.8309 34.1509 27.6352 35.9566C27.7506 36.0721 27.9203 35.9996 27.9203 35.8528V28.4116C27.9203 28.2541 27.7927 28.126 27.6349 28.126H21.8729C21.4981 28.126 21.1943 27.8219 21.1943 27.4469V21.9063C21.1943 21.5313 21.4981 21.2272 21.8729 21.2272H41.1972C41.5723 21.2272 41.8761 21.5313 41.8761 21.9063V27.4475C41.8761 27.8222 41.5723 28.126 41.1979 28.126H35.4364C35.2784 28.126 35.1504 28.2541 35.1504 28.4122V49.9955C35.1504 50.3702 34.8468 50.6739 34.4724 50.6739H28.7432C28.5928 50.6739 28.4921 50.8613 28.5986 50.9676C29.853 52.2219 32.3768 54.7485 33.6585 56.0311C34.0028 56.3757 34.4494 56.6632 35.0258 56.6632H40.5291C41.0502 56.6632 41.4726 56.2406 41.4726 55.7191V42.8627C41.4726 42.7045 41.6005 42.5764 41.7583 42.5764H42.362C48.5461 42.5764 54.5509 38.8013 54.5509 31.2619C54.5509 24.5493 49.9275 20.0343 42.362 20.0343Z" fill="url(#paint0_linear_36_150)"/>
</g>
</g>
<rect x="45.3745" y="167.627" width="15" height="277" rx="7.5" transform="rotate(132.077 45.3745 167.627)" fill="#0099FF" fill-opacity="0.4"/>
<rect x="94.3745" y="160.627" width="25" height="277" rx="12.5" transform="rotate(132.077 94.3745 160.627)" fill="#3047B0"/>
<rect x="1177" y="510" width="25" height="277" rx="12.5" transform="rotate(90 1177 510)" fill="#9AA6D9"/>
<rect x="1228" y="477" width="18" height="277" rx="9" transform="rotate(90 1228 477)" fill="#0099FF" fill-opacity="0.4"/>
<circle cx="84" cy="404" r="20" stroke="#3047B0" stroke-width="12"/>
<circle cx="1120" r="230" stroke="#0099FF" stroke-opacity="0.4" stroke-width="30"/>
</g>
<defs>
<linearGradient id="paint0_linear_36_150" x1="33.8195" y1="38.3488" x2="54.5504" y2="38.3488" gradientUnits="userSpaceOnUse">
<stop stop-color="#3047B0"/>
<stop offset="1" stop-color="#0099FF"/>
</linearGradient>
<clipPath id="clip0_36_150">
<rect width="1100" height="645" fill="white"/>
</clipPath>
<clipPath id="clip1_36_150">
<rect width="213" height="43" fill="white" transform="translate(20 20)"/>
</clipPath>
</defs>
</svg>
