<svg width="1100" height="645" viewBox="0 0 1100 645" fill="none" xmlns="http://www.w3.org/2000/svg">
<g clip-path="url(#clip0_65_273)">
<rect width="1100" height="645" fill="white"/>
<g clip-path="url(#clip1_65_273)">
<path fill-rule="evenodd" clip-rule="evenodd" d="M65.5285 36.1516H61.131V32.6035H73.6172V36.1516H69.2195V51.1379H65.5285V36.1516Z" fill="black"/>
<path fill-rule="evenodd" clip-rule="evenodd" d="M80.1849 43.1931C80.1849 41.3429 79.6411 40.3361 78.2544 40.3361C76.8678 40.3361 76.2153 41.4243 76.0793 43.1931H80.1849ZM72.4356 44.2273C72.4356 40.0093 74.5564 37.3427 78.2001 37.3427C81.9251 37.3427 83.9643 40.3361 83.5294 45.615H76.2153C76.5142 47.5196 77.6562 48.2816 79.5324 48.2816C80.6201 48.2816 81.6532 48.1455 82.7409 47.71V50.431C81.6805 50.9209 80.4842 51.1113 79.0429 51.1113C74.774 51.1113 72.4356 48.4993 72.4356 44.2273Z" fill="black"/>
<mask id="mask0_65_273" style="mask-type:alpha" maskUnits="userSpaceOnUse" x="20" y="20" width="213" height="43">
<path d="M20 63H232.911V20.0344H20V63Z" fill="white"/>
</mask>
<g mask="url(#mask0_65_273)">
<path fill-rule="evenodd" clip-rule="evenodd" d="M85.2894 50.6768H88.9328V30.813H85.2894V50.6768Z" fill="black"/>
<path fill-rule="evenodd" clip-rule="evenodd" d="M98.3044 43.1123C98.3044 41.2621 97.7606 40.2553 96.3739 40.2553C94.9873 40.2553 94.3348 41.3435 94.1988 43.1123H98.3044ZM90.5551 44.1465C90.5551 39.9285 92.6759 37.2619 96.3196 37.2619C100.045 37.2619 102.084 40.2553 101.649 45.5342H94.3348C94.6337 47.4387 95.7758 48.2008 97.6519 48.2008C98.7397 48.2008 99.7727 48.0647 100.86 47.6292V50.3501C99.8001 50.84 98.6037 51.0308 97.1624 51.0308C92.8935 51.0308 90.5551 48.4185 90.5551 44.1465Z" fill="black"/>
<path fill-rule="evenodd" clip-rule="evenodd" d="M106.935 46.5137C107.371 47.33 108.05 47.847 108.92 47.847C110.47 47.847 111.068 46.5137 111.068 44.1465C111.068 41.7791 110.47 40.4457 108.92 40.4457C108.05 40.4457 107.371 40.9627 106.935 41.7791V46.5137ZM109.981 51.0308C108.513 51.0308 107.561 50.4049 106.935 49.6972V56.6632H103.292V37.6157H106.555V38.949C107.153 38.1053 108.213 37.2619 109.899 37.2619C113.407 37.2619 114.685 40.4728 114.685 44.1465C114.685 48.1735 113.216 51.0308 109.981 51.0308Z" fill="black"/>
<path fill-rule="evenodd" clip-rule="evenodd" d="M123.535 43.1123C123.535 41.2621 122.991 40.2553 121.604 40.2553C120.217 40.2553 119.565 41.3435 119.429 43.1123H123.535ZM115.785 44.1465C115.785 39.9285 117.906 37.2619 121.55 37.2619C125.275 37.2619 127.314 40.2553 126.879 45.5342H119.565C119.864 47.4387 121.006 48.2008 122.882 48.2008C123.97 48.2008 125.003 48.0647 126.091 47.6292V50.3501C125.03 50.84 123.834 51.0308 122.393 51.0308C118.124 51.0308 115.785 48.4185 115.785 44.1465Z" fill="black"/>
<path fill-rule="evenodd" clip-rule="evenodd" d="M128.342 37.6157H131.605V39.602C132.394 37.9422 133.862 37.1805 135.82 37.3436V41.0444C134.08 40.8266 132.693 41.4526 131.986 43.2755V50.677H128.342V37.6157Z" fill="black"/>
<path fill-rule="evenodd" clip-rule="evenodd" d="M138.849 40.7721H137.136V37.6156H138.849V35.9015C138.849 32.5002 140.997 31.2756 143.335 31.2756C144.287 31.2756 144.967 31.4116 145.701 31.7111V34.7042C145.266 34.5138 144.749 34.4321 144.233 34.4321C143.199 34.4321 142.492 34.922 142.492 36.0375V37.6156H145.103V40.7721H142.492V50.6769H138.849V40.7721Z" fill="black"/>
<path fill-rule="evenodd" clip-rule="evenodd" d="M149.271 44.1464C149.271 46.5408 149.896 47.8468 151.473 47.8468C153.023 47.8468 153.648 46.5408 153.648 44.1464C153.648 41.7516 153.023 40.4186 151.473 40.4186C149.896 40.4186 149.271 41.7516 149.271 44.1464ZM157.319 44.1464C157.319 48.4457 155.225 51.0307 151.473 51.0307C147.694 51.0307 145.6 48.4457 145.6 44.1464C145.6 39.847 147.694 37.2621 151.473 37.2621C155.225 37.2621 157.319 39.8196 157.319 44.1464Z" fill="black"/>
<path fill-rule="evenodd" clip-rule="evenodd" d="M158.63 37.6157H161.892V39.602C162.681 37.9422 164.149 37.1805 166.107 37.3436V41.0444C164.367 40.8266 162.98 41.4526 162.273 43.2755V50.677H158.63V37.6157Z" fill="black"/>
<path fill-rule="evenodd" clip-rule="evenodd" d="M184.538 41.4525V50.6769H180.949V42.2142C180.949 41.153 180.46 40.6361 179.589 40.6361C178.828 40.6361 178.23 41.0713 177.768 41.806V50.6769H174.206V42.2142C174.206 41.153 173.689 40.6361 172.846 40.6361C172.112 40.6361 171.487 41.0713 171.024 41.8607V50.6769H167.435V37.6157H170.698V38.8402C171.46 37.8608 172.574 37.2618 173.988 37.2618C175.402 37.2618 176.463 37.8608 177.088 38.8402C178.04 37.7247 179.209 37.2618 180.623 37.2618C183.26 37.2618 184.538 39.1124 184.538 41.4525Z" fill="black"/>
<path fill-rule="evenodd" clip-rule="evenodd" d="M193.152 47.7925V45.2893C192.689 45.1802 192.282 45.1259 191.847 45.1259C190.514 45.1259 189.617 45.5614 189.617 46.8674C189.617 48.0373 190.324 48.5542 191.194 48.5542C192.01 48.5542 192.581 48.3097 193.152 47.7925ZM197.992 48.0646V50.6225C197.448 50.7856 196.904 50.8673 196.252 50.8673C195.245 50.8673 194.321 50.5678 193.777 49.8605C192.798 50.6495 191.629 51.0307 190.269 51.0307C188.04 51.0307 186.109 49.7244 186.109 46.9761C186.109 44.1734 188.149 42.7857 191.058 42.7857C191.765 42.7857 192.363 42.8674 193.152 43.0308V42.3232C193.152 41.262 192.662 40.3369 190.868 40.3369C189.399 40.3369 188.013 40.6904 186.925 41.153V38.0238C188.121 37.5886 189.726 37.2618 191.221 37.2618C194.838 37.2618 196.714 38.8675 196.714 42.5953V47.2482C196.714 47.9012 197.04 48.119 197.557 48.119C197.692 48.119 197.856 48.0919 197.992 48.0646Z" fill="black"/>
<path fill-rule="evenodd" clip-rule="evenodd" d="M199.338 37.6157H202.601V38.8403C203.335 37.9696 204.423 37.2619 206.136 37.2619C208.202 37.2619 210.078 38.7042 210.078 41.4252V50.677H206.435V42.2143C206.435 41.0987 205.891 40.6362 204.939 40.6362C203.988 40.6362 203.335 41.2621 202.981 41.9421V50.677H199.338V37.6157Z" fill="black"/>
<path fill-rule="evenodd" clip-rule="evenodd" d="M211.598 44.2551C211.598 39.7656 214.209 37.2621 217.798 37.2621C218.913 37.2621 219.756 37.4251 220.653 37.8607V40.9355C219.973 40.5817 219.266 40.3912 218.369 40.3912C216.465 40.3912 215.269 41.7789 215.269 44.1464C215.269 46.5138 216.33 47.8468 218.206 47.8468C219.32 47.8468 220.109 47.602 220.789 47.3029V50.4591C219.973 50.8402 218.967 51.0307 217.635 51.0307C214.127 51.0307 211.598 48.6088 211.598 44.2551Z" fill="black"/>
<path fill-rule="evenodd" clip-rule="evenodd" d="M229.508 43.1123C229.508 41.2621 228.964 40.2553 227.578 40.2553C226.191 40.2553 225.539 41.3435 225.403 43.1123H229.508ZM221.759 44.1465C221.759 39.9285 223.88 37.2619 227.523 37.2619C231.248 37.2619 233.288 40.2553 232.853 45.5342H225.539C225.837 47.4387 226.98 48.2008 228.856 48.2008C229.943 48.2008 230.976 48.0647 232.064 47.6292V50.3501C231.004 50.84 229.807 51.0308 228.366 51.0308C224.097 51.0308 221.759 48.4185 221.759 44.1465Z" fill="black"/>
<path fill-rule="evenodd" clip-rule="evenodd" d="M117.074 59.5092H120.392C120.37 58.1264 119.882 57.3672 118.761 57.3672C117.617 57.3672 117.13 58.1151 117.074 59.5092ZM121.117 62.5124C121.151 62.6826 121.094 62.7732 120.936 62.8073C120.517 62.9092 119.837 62.9999 119.124 62.9999C117.21 62.9999 116.27 62.1045 116.27 59.9739V59.7813C116.27 57.9111 116.995 56.7664 118.739 56.7664C120.981 56.7664 121.06 58.5798 121.105 59.6225L121.117 59.7696C121.117 59.9398 121.038 60.0304 120.868 60.0304H117.074C117.085 61.7304 117.719 62.3994 119.214 62.3994C119.916 62.3994 120.483 62.2971 120.845 62.2292C121.038 62.1951 121.083 62.3198 121.094 62.3994L121.117 62.5124Z" fill="black"/>
<path fill-rule="evenodd" clip-rule="evenodd" d="M122.929 61.2431C122.929 62.1274 123.552 62.456 124.65 62.456C125.342 62.456 125.851 62.3197 126.055 62.2404V60.2686C125.828 60.1439 125.239 59.974 124.549 59.974C123.461 59.974 122.929 60.3929 122.929 61.1639V61.2431ZM126.055 59.7246V58.5234C126.055 57.8317 125.715 57.367 124.605 57.367C124.016 57.367 123.246 57.4806 122.884 57.5485C122.691 57.5826 122.669 57.5371 122.623 57.3559L122.601 57.265C122.555 57.0611 122.635 57.0045 122.805 56.9705C123.292 56.8571 124.186 56.7662 124.775 56.7662C126.293 56.7662 126.814 57.367 126.814 58.5234V62.3878C126.814 62.5691 126.78 62.6259 126.565 62.6827C126.225 62.8185 125.511 63 124.605 63C123.201 63 122.125 62.6031 122.125 61.2772V61.1184C122.125 60.0419 122.929 59.4411 124.367 59.4411C124.979 59.4411 125.511 59.5431 126.055 59.7246Z" fill="black"/>
<path fill-rule="evenodd" clip-rule="evenodd" d="M132.239 57.2538C132.216 57.4123 132.182 57.4578 132.046 57.4464C131.548 57.3896 131.412 57.3672 130.914 57.3672C129.543 57.3672 128.966 58.2284 128.966 59.7924V59.9852C128.966 61.5833 129.577 62.3994 130.97 62.3994C131.446 62.3994 131.786 62.3539 132.08 62.3085C132.227 62.2857 132.25 62.4332 132.261 62.5124L132.284 62.6485C132.306 62.8073 132.25 62.8527 132.091 62.8752C131.604 62.9547 131.174 62.9999 130.823 62.9999C128.943 62.9999 128.161 61.9571 128.161 59.9625V59.7924C128.161 57.8546 128.966 56.7664 130.766 56.7664C131.321 56.7664 131.616 56.8005 132.08 56.8797C132.216 56.9025 132.295 56.9479 132.272 57.1178L132.239 57.2538Z" fill="black"/>
<path fill-rule="evenodd" clip-rule="evenodd" d="M138.196 62.6372C138.196 62.8074 138.116 62.8866 137.958 62.8866H137.697C137.527 62.8866 137.448 62.8074 137.448 62.6372V58.9539C137.448 58.0245 137.029 57.401 135.998 57.401C135.387 57.401 134.572 57.6163 134.277 57.7638V62.6372C134.277 62.8074 134.198 62.8866 134.028 62.8866H133.767C133.598 62.8866 133.518 62.8074 133.518 62.6372V54.6923C133.518 54.5225 133.598 54.4429 133.767 54.4429H134.028C134.198 54.4429 134.277 54.5225 134.277 54.6923V57.1403C134.866 56.9253 135.579 56.7665 136.202 56.7665C137.618 56.7665 138.196 57.6053 138.196 58.8858V62.6372Z" fill="black"/>
<path fill-rule="evenodd" clip-rule="evenodd" d="M144.13 62.4786C144.153 62.6371 144.164 62.728 143.983 62.7845C143.779 62.841 143.587 62.8865 143.371 62.8865C142.715 62.8865 142.33 62.6146 142.33 61.606V57.1291C142.33 56.9592 142.409 56.8797 142.567 56.8797H142.828C142.998 56.8797 143.077 56.9592 143.077 57.1291V61.606C143.077 62.0704 143.213 62.2857 143.553 62.2857C143.677 62.2857 143.847 62.2519 143.96 62.2178C144.051 62.1951 144.096 62.2633 144.119 62.3993L144.13 62.4786ZM142.545 55.8824C142.375 55.8824 142.295 55.8031 142.295 55.633V55.0325C142.295 54.8624 142.375 54.7831 142.545 54.7831H142.873C143.032 54.7831 143.111 54.8624 143.111 55.0325V55.633C143.111 55.8031 143.032 55.8824 142.873 55.8824H142.545Z" fill="black"/>
<path fill-rule="evenodd" clip-rule="evenodd" d="M149.668 62.6372C149.668 62.8074 149.589 62.8866 149.43 62.8866H149.17C149 62.8866 148.921 62.8074 148.921 62.6372V58.954C148.921 58.0245 148.502 57.401 147.471 57.401C146.86 57.401 146.044 57.6163 145.75 57.7638V62.6372C145.75 62.8074 145.67 62.8866 145.501 62.8866H145.24C145.07 62.8866 144.991 62.8074 144.991 62.6372V57.5936C144.991 57.4238 145.07 57.3104 145.229 57.2312C145.693 57.0156 146.645 56.7665 147.528 56.7665C149.045 56.7665 149.668 57.5936 149.668 58.863V62.6372Z" fill="black"/>
<path fill-rule="evenodd" clip-rule="evenodd" d="M151.311 57.4805H150.903C150.733 57.4805 150.654 57.4012 150.654 57.2311V57.1291C150.654 56.9593 150.733 56.8797 150.903 56.8797H151.311V55.837C151.311 55.6671 151.39 55.5876 151.56 55.5876H151.82C151.99 55.5876 152.07 55.6671 152.07 55.837V56.8797H153.145C153.327 56.8797 153.395 56.9593 153.395 57.1291V57.2311C153.395 57.4012 153.327 57.4805 153.145 57.4805H152.07V61.3449C152.07 61.9006 152.251 62.2857 152.851 62.2857C152.998 62.2857 153.213 62.2633 153.429 62.2065C153.531 62.1951 153.599 62.2857 153.599 62.4445V62.5579C153.599 62.728 153.587 62.7732 153.406 62.7959C153.191 62.8638 152.987 62.8865 152.772 62.8865C151.73 62.8865 151.311 62.3653 151.311 61.3449V57.4805Z" fill="black"/>
<path fill-rule="evenodd" clip-rule="evenodd" d="M155.037 59.5092H158.355C158.333 58.1264 157.846 57.3672 156.724 57.3672C155.581 57.3672 155.094 58.1151 155.037 59.5092ZM159.08 62.5124C159.114 62.6826 159.057 62.7732 158.899 62.8073C158.48 62.9092 157.801 62.9999 157.087 62.9999C155.173 62.9999 154.233 62.1045 154.233 59.9739V59.7813C154.233 57.9111 154.958 56.7664 156.702 56.7664C158.944 56.7664 159.024 58.5798 159.069 59.6225L159.08 59.7696C159.08 59.9398 159.001 60.0304 158.831 60.0304H155.037C155.048 61.7304 155.682 62.3994 157.177 62.3994C157.88 62.3994 158.446 62.2971 158.808 62.2292C159.001 62.1951 159.046 62.3198 159.057 62.3994L159.08 62.5124Z" fill="black"/>
<path fill-rule="evenodd" clip-rule="evenodd" d="M163.599 57.2312C163.565 57.4351 163.542 57.4689 163.384 57.4578C163.123 57.4013 162.817 57.3896 162.523 57.3896C162.149 57.3896 161.583 57.4689 161.232 57.628V62.6372C161.232 62.8073 161.153 62.8866 160.983 62.8866H160.722C160.552 62.8866 160.473 62.8073 160.473 62.6372V57.3669C160.473 57.2312 160.53 57.1292 160.711 57.0727C161.255 56.8343 161.855 56.7664 162.466 56.7664C162.908 56.7664 163.202 56.8005 163.474 56.8571C163.655 56.8911 163.644 56.9818 163.61 57.163L163.599 57.2312Z" fill="black"/>
<path fill-rule="evenodd" clip-rule="evenodd" d="M164.924 61.2431C164.924 62.1274 165.547 62.456 166.645 62.456C167.337 62.456 167.846 62.3197 168.05 62.2404V60.2686C167.823 60.1439 167.234 59.974 166.543 59.974C165.456 59.974 164.924 60.3929 164.924 61.1639V61.2431ZM168.05 59.7246V58.5234C168.05 57.8317 167.71 57.367 166.6 57.367C166.011 57.367 165.241 57.4806 164.879 57.5485C164.686 57.5826 164.664 57.5371 164.618 57.3559L164.596 57.265C164.55 57.0611 164.63 57.0045 164.8 56.9705C165.287 56.8571 166.181 56.7662 166.77 56.7662C168.288 56.7662 168.809 57.367 168.809 58.5234V62.3878C168.809 62.5691 168.775 62.6259 168.56 62.6827C168.22 62.8185 167.506 63 166.6 63C165.196 63 164.12 62.6031 164.12 61.2772V61.1184C164.12 60.0419 164.924 59.4411 166.362 59.4411C166.974 59.4411 167.506 59.5431 168.05 59.7246Z" fill="black"/>
<path fill-rule="evenodd" clip-rule="evenodd" d="M174.233 57.2538C174.211 57.4123 174.177 57.4578 174.041 57.4464C173.543 57.3896 173.407 57.3672 172.908 57.3672C171.538 57.3672 170.96 58.2284 170.96 59.7924V59.9852C170.96 61.5833 171.572 62.3994 172.965 62.3994C173.441 62.3994 173.78 62.3539 174.075 62.3085C174.222 62.2857 174.245 62.4332 174.256 62.5124L174.279 62.6485C174.301 62.8073 174.245 62.8527 174.086 62.8752C173.599 62.9547 173.169 62.9999 172.818 62.9999C170.938 62.9999 170.156 61.9571 170.156 59.9625V59.7924C170.156 57.8546 170.96 56.7664 172.761 56.7664C173.316 56.7664 173.61 56.8005 174.075 56.8797C174.211 56.9025 174.29 56.9479 174.267 57.1178L174.233 57.2538Z" fill="black"/>
<path fill-rule="evenodd" clip-rule="evenodd" d="M175.627 57.4805H175.219C175.049 57.4805 174.97 57.4012 174.97 57.2311V57.1291C174.97 56.9593 175.049 56.8797 175.219 56.8797H175.627V55.837C175.627 55.6671 175.706 55.5876 175.876 55.5876H176.136C176.306 55.5876 176.385 55.6671 176.385 55.837V56.8797H177.461C177.642 56.8797 177.71 56.9593 177.71 57.1291V57.2311C177.71 57.4012 177.642 57.4805 177.461 57.4805H176.385V61.3449C176.385 61.9006 176.567 62.2857 177.167 62.2857C177.314 62.2857 177.529 62.2633 177.744 62.2065C177.846 62.1951 177.914 62.2857 177.914 62.4445V62.5579C177.914 62.728 177.903 62.7732 177.722 62.7959C177.506 62.8638 177.303 62.8865 177.087 62.8865C176.045 62.8865 175.627 62.3653 175.627 61.3449V57.4805Z" fill="black"/>
<path fill-rule="evenodd" clip-rule="evenodd" d="M180.643 62.4786C180.666 62.6371 180.678 62.728 180.496 62.7845C180.292 62.841 180.1 62.8865 179.885 62.8865C179.228 62.8865 178.843 62.6146 178.843 61.606V57.1291C178.843 56.9592 178.922 56.8797 179.081 56.8797H179.341C179.511 56.8797 179.59 56.9592 179.59 57.1291V61.606C179.59 62.0704 179.726 62.2857 180.066 62.2857C180.19 62.2857 180.361 62.2519 180.474 62.2178C180.564 62.1951 180.61 62.2633 180.632 62.3993L180.643 62.4786ZM179.058 55.8824C178.888 55.8824 178.809 55.8031 178.809 55.633V55.0325C178.809 54.8624 178.888 54.7831 179.058 54.7831H179.386C179.545 54.7831 179.624 54.8624 179.624 55.0325V55.633C179.624 55.8031 179.545 55.8824 179.386 55.8824H179.058Z" fill="black"/>
<path fill-rule="evenodd" clip-rule="evenodd" d="M185.661 59.7812C185.661 58.2513 185.061 57.3671 183.838 57.3671C182.603 57.3671 182.014 58.2513 182.014 59.7812V59.9741C182.014 61.4699 182.603 62.3993 183.838 62.3993C185.061 62.3993 185.661 61.4699 185.661 59.9741V59.7812ZM181.21 59.7812C181.21 57.8772 182.094 56.7663 183.838 56.7663C185.582 56.7663 186.465 57.8772 186.465 59.7812V59.9741C186.465 61.8664 185.582 63.0001 183.838 63.0001C182.094 63.0001 181.21 61.8664 181.21 59.9741V59.7812Z" fill="black"/>
<path fill-rule="evenodd" clip-rule="evenodd" d="M192.49 62.6372C192.49 62.8074 192.411 62.8866 192.252 62.8866H191.992C191.822 62.8866 191.743 62.8074 191.743 62.6372V58.954C191.743 58.0245 191.324 57.401 190.293 57.401C189.682 57.401 188.866 57.6163 188.572 57.7638V62.6372C188.572 62.8074 188.492 62.8866 188.323 62.8866H188.062C187.892 62.8866 187.813 62.8074 187.813 62.6372V57.5936C187.813 57.4238 187.892 57.3104 188.051 57.2312C188.515 57.0156 189.466 56.7665 190.35 56.7665C191.867 56.7665 192.49 57.5936 192.49 58.863V62.6372Z" fill="black"/>
<path fill-rule="evenodd" clip-rule="evenodd" d="M204.778 62.6372C204.778 62.8074 204.699 62.8866 204.529 62.8866H204.268C204.099 62.8866 204.019 62.8074 204.019 62.6372V59.0332C204.019 58.0583 203.623 57.401 202.604 57.401C202.06 57.401 201.346 57.7073 201.064 57.9226V62.6372C201.064 62.8074 200.995 62.8866 200.826 62.8866H200.554C200.384 62.8866 200.305 62.8074 200.305 62.6372V58.3645C200.305 57.7865 199.908 57.401 198.878 57.401C198.357 57.401 197.632 57.6163 197.36 57.7638V62.6372C197.36 62.8074 197.281 62.8866 197.111 62.8866H196.85C196.681 62.8866 196.601 62.8074 196.601 62.6372V57.5936C196.601 57.4238 196.669 57.3104 196.839 57.2539C197.281 57.0272 198.13 56.7665 198.945 56.7665C199.784 56.7665 200.35 56.9591 200.678 57.2991C201.245 57.0045 202.003 56.7665 202.66 56.7665C204.155 56.7665 204.778 57.6391 204.778 58.9767V62.6372Z" fill="black"/>
<path fill-rule="evenodd" clip-rule="evenodd" d="M206.817 61.2431C206.817 62.1274 207.44 62.456 208.538 62.456C209.229 62.456 209.739 62.3197 209.943 62.2404V60.2686C209.716 60.1439 209.127 59.974 208.436 59.974C207.349 59.974 206.817 60.3929 206.817 61.1639V61.2431ZM209.943 59.7246V58.5234C209.943 57.8317 209.603 57.367 208.493 57.367C207.904 57.367 207.134 57.4806 206.771 57.5485C206.579 57.5826 206.556 57.5371 206.511 57.3559L206.488 57.265C206.443 57.0611 206.522 57.0045 206.692 56.9705C207.179 56.8571 208.074 56.7662 208.663 56.7662C210.18 56.7662 210.701 57.367 210.701 58.5234V62.3878C210.701 62.5691 210.667 62.6259 210.452 62.6827C210.113 62.8185 209.399 63 208.493 63C207.088 63 206.013 62.6031 206.013 61.2772V61.1184C206.013 60.0419 206.817 59.4411 208.255 59.4411C208.867 59.4411 209.399 59.5431 209.943 59.7246Z" fill="black"/>
<path fill-rule="evenodd" clip-rule="evenodd" d="M212.378 57.4805H211.97C211.8 57.4805 211.721 57.4012 211.721 57.2311V57.1291C211.721 56.9593 211.8 56.8797 211.97 56.8797H212.378V55.837C212.378 55.6671 212.457 55.5876 212.627 55.5876H212.887C213.057 55.5876 213.136 55.6671 213.136 55.837V56.8797H214.212C214.393 56.8797 214.461 56.9593 214.461 57.1291V57.2311C214.461 57.4012 214.393 57.4805 214.212 57.4805H213.136V61.3449C213.136 61.9006 213.318 62.2857 213.918 62.2857C214.065 62.2857 214.28 62.2633 214.495 62.2065C214.597 62.1951 214.665 62.2857 214.665 62.4445V62.5579C214.665 62.728 214.654 62.7732 214.473 62.7959C214.257 62.8638 214.054 62.8865 213.838 62.8865C212.796 62.8865 212.378 62.3653 212.378 61.3449V57.4805Z" fill="black"/>
<path fill-rule="evenodd" clip-rule="evenodd" d="M215.685 57.4805H215.277C215.107 57.4805 215.028 57.4012 215.028 57.2311V57.1291C215.028 56.9593 215.107 56.8797 215.277 56.8797H215.685V55.837C215.685 55.6671 215.764 55.5876 215.934 55.5876H216.194C216.364 55.5876 216.443 55.6671 216.443 55.837V56.8797H217.519C217.7 56.8797 217.768 56.9593 217.768 57.1291V57.2311C217.768 57.4012 217.7 57.4805 217.519 57.4805H216.443V61.3449C216.443 61.9006 216.625 62.2857 217.225 62.2857C217.372 62.2857 217.587 62.2633 217.802 62.2065C217.904 62.1951 217.972 62.2857 217.972 62.4445V62.5579C217.972 62.728 217.961 62.7732 217.78 62.7959C217.564 62.8638 217.361 62.8865 217.145 62.8865C216.104 62.8865 215.685 62.3653 215.685 61.3449V57.4805Z" fill="black"/>
<path fill-rule="evenodd" clip-rule="evenodd" d="M219.411 59.5092H222.729C222.706 58.1264 222.219 57.3672 221.098 57.3672C219.954 57.3672 219.467 58.1151 219.411 59.5092ZM223.454 62.5124C223.488 62.6826 223.431 62.7732 223.273 62.8073C222.853 62.9092 222.174 62.9999 221.461 62.9999C219.547 62.9999 218.607 62.1045 218.607 59.9739V59.7813C218.607 57.9111 219.331 56.7664 221.075 56.7664C223.318 56.7664 223.397 58.5798 223.442 59.6225L223.454 59.7696C223.454 59.9398 223.375 60.0304 223.205 60.0304H219.411C219.422 61.7304 220.056 62.3994 221.551 62.3994C222.253 62.3994 222.819 62.2971 223.182 62.2292C223.375 62.1951 223.42 62.3198 223.431 62.3994L223.454 62.5124Z" fill="black"/>
<path fill-rule="evenodd" clip-rule="evenodd" d="M227.973 57.2312C227.939 57.4351 227.916 57.4689 227.758 57.4578C227.497 57.4013 227.191 57.3896 226.897 57.3896C226.523 57.3896 225.957 57.4689 225.606 57.628V62.6372C225.606 62.8073 225.527 62.8866 225.357 62.8866H225.096C224.926 62.8866 224.847 62.8073 224.847 62.6372V57.3669C224.847 57.2312 224.904 57.1292 225.085 57.0727C225.628 56.8343 226.228 56.7664 226.84 56.7664C227.282 56.7664 227.576 56.8005 227.848 56.8571C228.029 56.8911 228.018 56.9818 227.984 57.163L227.973 57.2312Z" fill="black"/>
<path fill-rule="evenodd" clip-rule="evenodd" d="M232.695 57.2765C232.673 57.5143 232.616 57.5259 232.469 57.5032C232.174 57.4464 231.88 57.3671 231.121 57.3671C230.238 57.3671 229.524 57.5142 229.524 58.217C229.524 59.7472 232.911 58.7613 232.911 61.2657C232.911 62.4104 232.072 63.0001 230.623 63.0001C229.989 63.0001 229.286 62.8979 228.913 62.841C228.709 62.8186 228.675 62.7732 228.675 62.5692V62.49C228.675 62.2519 228.777 62.2178 228.947 62.2406C229.219 62.2857 229.898 62.3994 230.555 62.3994C231.823 62.3994 232.141 61.9006 232.141 61.2884C232.141 59.2711 228.766 60.3476 228.766 58.217C228.766 57.0044 229.785 56.7664 230.997 56.7664C231.88 56.7664 232.378 56.8683 232.526 56.9024C232.684 56.9252 232.741 56.9703 232.718 57.1856L232.695 57.2765Z" fill="black"/>
<path fill-rule="evenodd" clip-rule="evenodd" d="M42.3621 20.0342H21.2806C20.5734 20.0342 19.9998 20.608 19.9998 21.3159V27.6032C19.9998 28.1284 20.1017 28.4177 20.3482 28.6643C22.1519 30.4694 25.8309 34.1508 27.6353 35.9565C27.7507 36.072 27.9204 35.9995 27.9204 35.8527V28.4116C27.9204 28.254 27.7927 28.1259 27.635 28.1259H21.8729C21.4982 28.1259 21.1943 27.8218 21.1943 27.4468V21.9063C21.1943 21.5313 21.4982 21.2272 21.8729 21.2272H41.1973C41.5724 21.2272 41.8762 21.5313 41.8762 21.9063V27.4474C41.8762 27.8222 41.5724 28.1259 41.1979 28.1259H35.4365C35.2784 28.1259 35.1504 28.254 35.1504 28.4122V49.9954C35.1504 50.3701 34.8469 50.6739 34.4725 50.6739H28.7433C28.5929 50.6739 28.4922 50.8612 28.5987 50.9675C29.8531 52.2219 32.3768 54.7484 33.6585 56.0311C34.0029 56.3757 34.4494 56.6632 35.0258 56.6632H40.5292C41.0503 56.6632 41.4726 56.2405 41.4726 55.719V42.8626C41.4726 42.7045 41.6006 42.5764 41.7584 42.5764H42.3621C48.5461 42.5764 54.5509 38.8013 54.5509 31.2618C54.5509 24.5492 49.9275 20.0342 42.3621 20.0342Z" fill="url(#paint0_linear_65_273)"/>
</g>
</g>
<path fill-rule="evenodd" clip-rule="evenodd" d="M-3 356.989L33.8667 327.82C70.7333 298.652 144.467 240.314 218.2 254.899C291.933 269.483 365.667 356.989 439.4 408.034C513.133 459.079 586.867 473.663 660.6 429.91C734.333 386.157 808.067 284.067 881.8 247.607C955.533 211.146 1029.27 240.314 1066.13 254.899L1103 269.483V532H1066.13C1029.27 532 955.533 532 881.8 532C808.067 532 734.333 532 660.6 532C586.867 532 513.133 532 439.4 532C365.667 532 291.933 532 218.2 532C144.467 532 70.7333 532 33.8667 532H-3V356.989Z" fill="#F2FAFF"/>
<path fill-rule="evenodd" clip-rule="evenodd" d="M0 381L36.6667 392C73.3333 403 146.667 425 220 441.5C293.333 458 366.667 469 440 458C513.333 447 586.667 414 660 436C733.333 458 806.667 535 880 529.5C953.333 524 1026.67 436 1063.33 392L1100 348V645H1063.33C1026.67 645 953.333 645 880 645C806.667 645 733.333 645 660 645C586.667 645 513.333 645 440 645C366.667 645 293.333 645 220 645C146.667 645 73.3333 645 36.6667 645H0V381Z" fill="#E5F5FF"/>
</g>
<defs>
<linearGradient id="paint0_linear_65_273" x1="33.8196" y1="38.3487" x2="54.5505" y2="38.3487" gradientUnits="userSpaceOnUse">
<stop stop-color="#3047B0"/>
<stop offset="1" stop-color="#0099FF"/>
</linearGradient>
<clipPath id="clip0_65_273">
<rect width="1100" height="645" fill="white"/>
</clipPath>
<clipPath id="clip1_65_273">
<rect width="213" height="43" fill="white" transform="translate(20 20)"/>
</clipPath>
</defs>
</svg>
