<svg width="250" height="250" viewBox="0 0 250 250" fill="none" xmlns="http://www.w3.org/2000/svg">
<path d="M71.085 122.301H209.972C211.026 122.301 212.07 122.509 213.044 122.912C214.018 123.316 214.903 123.907 215.649 124.652C216.394 125.398 216.985 126.283 217.389 127.257C217.792 128.231 218 129.275 218 130.329V163.732C218 164.786 217.792 165.83 217.389 166.804C216.985 167.778 216.394 168.663 215.649 169.409C214.903 170.154 214.018 170.746 213.044 171.149C212.07 171.553 211.026 171.76 209.972 171.76H207.933V177.795C207.933 178.161 207.824 178.519 207.621 178.824C207.418 179.128 207.128 179.366 206.79 179.506C206.452 179.646 206.079 179.682 205.72 179.611C205.361 179.54 205.031 179.363 204.772 179.104L197.428 171.76H71.085C70.0307 171.76 68.9867 171.553 68.0127 171.149C67.0386 170.746 66.1536 170.154 65.4081 169.409C64.6626 168.663 64.0712 167.778 63.6677 166.804C63.2643 165.83 63.0566 164.786 63.0566 163.732V130.329C63.0566 129.275 63.2643 128.231 63.6677 127.257C64.0712 126.283 64.6626 125.398 65.4081 124.652C66.1536 123.907 67.0386 123.316 68.0127 122.912C68.9867 122.509 70.0307 122.301 71.085 122.301Z" fill="white"/>
<path d="M209.972 167.686H104.488C94.5835 167.675 85.0882 163.735 78.0849 156.732C71.0815 149.729 67.1421 140.234 67.1308 130.33C67.1319 129.281 67.5489 128.276 68.2902 127.535C69.0315 126.793 70.0366 126.376 71.085 126.375H209.972C211.02 126.376 212.025 126.793 212.766 127.535C213.508 128.276 213.925 129.281 213.926 130.329V163.732C213.925 164.78 213.508 165.785 212.766 166.526C212.025 167.268 211.02 167.685 209.972 167.686Z" fill="#B7BFE3" fill-opacity="0.350106"/>
<path d="M111.057 138.933H169.708C171.158 138.933 172.334 137.758 172.334 136.307C172.334 134.857 171.158 133.681 169.708 133.681H111.057C109.607 133.681 108.431 134.857 108.431 136.307C108.431 137.758 109.607 138.933 111.057 138.933Z" fill="#4F63BC"/>
<path d="M98.5827 149.438H182.182C183.632 149.438 184.808 148.262 184.808 146.812C184.808 145.361 183.632 144.186 182.182 144.186H98.5827C97.1323 144.186 95.9566 145.361 95.9566 146.812C95.9566 148.262 97.1323 149.438 98.5827 149.438Z" fill="white"/>
<path d="M98.5827 159.943H182.182C183.632 159.943 184.808 158.767 184.808 157.316C184.808 155.866 183.632 154.69 182.182 154.69H98.5827C97.1323 154.69 95.9566 155.866 95.9566 157.316C95.9566 158.767 97.1323 159.943 98.5827 159.943Z" fill="white"/>
<path d="M188.917 60.2157H50.03C48.9757 60.2157 47.9317 60.4234 46.9577 60.8268C45.9836 61.2303 45.0986 61.8217 44.3531 62.5672C43.6075 63.3127 43.0162 64.1977 42.6127 65.1718C42.2092 66.1458 42.0016 67.1898 42.0016 68.2441V101.647C42.0016 102.701 42.2092 103.745 42.6127 104.719C43.0162 105.693 43.6075 106.578 44.353 107.324C45.0985 108.069 45.9836 108.66 46.9576 109.064C47.9317 109.467 48.9757 109.675 50.03 109.675H52.0685V115.71C52.0685 116.076 52.1771 116.434 52.3806 116.738C52.584 117.043 52.8732 117.28 53.2115 117.42C53.5498 117.56 53.9221 117.597 54.2813 117.526C54.6404 117.454 54.9703 117.278 55.2292 117.019L62.5732 109.675H188.917C189.971 109.675 191.015 109.467 191.989 109.064C192.963 108.66 193.848 108.069 194.594 107.324C195.339 106.578 195.93 105.693 196.334 104.719C196.737 103.745 196.945 102.701 196.945 101.647V68.2441C196.945 67.1898 196.737 66.1458 196.334 65.1718C195.93 64.1977 195.339 63.3127 194.593 62.5672C193.848 61.8217 192.963 61.2303 191.989 60.8268C191.015 60.4234 189.971 60.2157 188.917 60.2157Z" fill="white"/>
<path d="M155.514 105.517H50.0301C49.0039 105.516 48.0201 105.108 47.2945 104.382C46.5689 103.656 46.1608 102.673 46.1596 101.646V68.2441C46.1608 67.218 46.5689 66.2343 47.2945 65.5088C48.02 64.7832 49.0038 64.3751 50.0298 64.3739H188.916C189.943 64.3751 190.926 64.7832 191.652 65.5088C192.378 66.2344 192.786 67.2182 192.787 68.2443C192.776 78.1262 188.845 87.6002 181.858 94.5877C174.87 101.575 165.396 105.506 155.514 105.517Z" fill="#B7BFE3" fill-opacity="0.350106"/>
<path d="M148.945 71.5958H90.2937C88.8434 71.5958 87.6676 72.7715 87.6676 74.2219V74.2219C87.6676 75.6723 88.8434 76.8481 90.2937 76.8481H148.945C150.395 76.8481 151.571 75.6723 151.571 74.2219C151.571 72.7715 150.395 71.5958 148.945 71.5958Z" fill="#4F63BC"/>
<path d="M161.419 82.1004H77.8195C76.3691 82.1004 75.1933 83.2762 75.1933 84.7265V84.7266C75.1933 86.1769 76.3691 87.3527 77.8195 87.3527H161.419C162.869 87.3527 164.045 86.1769 164.045 84.7265C164.045 83.2762 162.869 82.1004 161.419 82.1004Z" fill="white"/>
<path d="M161.419 92.605H77.8195C76.3691 92.605 75.1933 93.7808 75.1933 95.2312V95.2312C75.1933 96.6816 76.3691 97.8574 77.8195 97.8574H161.419C162.869 97.8574 164.045 96.6816 164.045 95.2312C164.045 93.7808 162.869 92.605 161.419 92.605Z" fill="white"/>
</svg>
