<svg width="1440" height="1024" viewBox="0 0 1440 1024" fill="none" xmlns="http://www.w3.org/2000/svg">
<g clip-path="url(#clip0_33_2)">
<rect width="1440" height="1024" fill="#F9F9F9"/>
<path fill-rule="evenodd" clip-rule="evenodd" d="M0 609L60 623C120 638 240 667 360 731C480 796 600 897 720 933C840 969 960 940 1080 883C1200 825 1320 739 1380 695L1440 652V1041H1380C1320 1041 1200 1041 1080 1041C960 1041 840 1041 720 1041C600 1041 480 1041 360 1041C240 1041 120 1041 60 1041H0V609Z" fill="#F3F3F3"/>
<path fill-rule="evenodd" clip-rule="evenodd" d="M1538 1003.25L1488 949.249C1438 895.249 1338 787.249 1238 757.249C1138 727.249 1038 775.249 938 829.249C838 883.249 738 943.249 638 961.249C538 979.249 230 1051.25 180 1039.25H338H388C438 1039.25 538 1039.25 638 1039.25C738 1039.25 838 1039.25 938 1039.25C1038 1039.25 1138 1039.25 1238 1039.25C1338 1039.25 1438 1039.25 1488 1039.25H1538V1003.25Z" fill="#DCDEEA"/>
<path fill-rule="evenodd" clip-rule="evenodd" d="M0 324L60 280.875C120 237.75 240 151.5 360 122.75C480 94 600 122.75 720 165.875C840 209 960 266.5 1080 259.312C1200 252.125 1320 180.25 1380 144.312L1440 108.375V-21H1380C1320 -21 1200 -21 1080 -21C960 -21 840 -21 720 -21C600 -21 480 -21 360 -21C240 -21 120 -21 60 -21H0V324Z" fill="#F3F3F3"/>
<path fill-rule="evenodd" clip-rule="evenodd" d="M-18 42.25L42.75 99.9167C103.5 157.583 225 272.917 346.5 287.333C468 301.75 589.5 215.25 711 157.583C832.5 99.9167 954 71.0833 1075.5 107.125C1197 143.167 1318.5 244.083 1379.25 294.542L1440 345V-1H1379.25C1318.5 -1 1197 -1 1075.5 -1C954 -1 832.5 -1 711 -1C589.5 -1 468 -1 346.5 -1C225 -1 103.5 -1 42.75 -1H-18V42.25Z" fill="#DCDEEA"/>
</g>
<defs>
<clipPath id="clip0_33_2">
<rect width="1440" height="1024" fill="white"/>
</clipPath>
</defs>
</svg>
