<svg width="55" height="62" viewBox="0 0 55 62" fill="none" xmlns="http://www.w3.org/2000/svg">
<path fill-rule="evenodd" clip-rule="evenodd" d="M31.4462 6H2.74376C1.78099 6 1 6.77389 1 7.72881V16.2092C1 16.9177 1.13873 17.3079 1.47428 17.6406C3.93009 20.0754 8.93906 25.041 11.3957 27.4766C11.5528 27.6323 11.7839 27.5346 11.7839 27.3365V17.2996C11.7839 17.0871 11.6101 16.9144 11.3953 16.9144H3.55025C3.04003 16.9144 2.62634 16.5042 2.62634 15.9984V8.52507C2.62634 8.01923 3.04003 7.60909 3.55025 7.60909H29.8604C30.3711 7.60909 30.7848 8.01923 30.7848 8.52507V15.9992C30.7848 16.5046 30.3711 16.9144 29.8613 16.9144H22.0171C21.8019 16.9144 21.6276 17.0871 21.6276 17.3005V46.4127C21.6276 46.9182 21.2143 47.3279 20.7045 47.3279H12.9042C12.6995 47.3279 12.5624 47.5806 12.7074 47.724C14.4152 49.4159 17.8513 52.8238 19.5964 54.5539C20.0652 55.0187 20.6732 55.4065 21.458 55.4065H28.9507C29.6603 55.4065 30.2353 54.8364 30.2353 54.133V36.7918C30.2353 36.5784 30.4095 36.4057 30.6243 36.4057H31.4462C39.8659 36.4057 48.0414 31.3137 48.0414 21.1442C48.0414 12.09 41.7467 6 31.4462 6Z" fill="url(#paint0_linear_405_2)"/>
<defs>
<linearGradient id="paint0_linear_405_2" x1="19.8156" y1="30.7032" x2="48.0408" y2="30.7032" gradientUnits="userSpaceOnUse">
<stop stop-color="#3047B0"/>
<stop offset="1" stop-color="#0087FF"/>
</linearGradient>
</defs>
</svg>
