<svg width="300" height="60" viewBox="0 0 300 60" fill="none" xmlns="http://www.w3.org/2000/svg">
<g clip-path="url(#clip0_503_2)">
<path fill-rule="evenodd" clip-rule="evenodd" d="M64.1246 22.5371H57.931V17.5862H75.5172V22.5371H69.3232V43.4483H64.1246V22.5371Z" fill="black"/>
<path fill-rule="evenodd" clip-rule="evenodd" d="M84.7675 32.3625C84.7675 29.7808 84.0015 28.376 82.0484 28.376C80.0954 28.376 79.1764 29.8944 78.9849 32.3625H84.7675ZM73.8529 33.8055C73.8529 27.92 76.8399 24.1991 81.9719 24.1991C87.2185 24.1991 90.0905 28.376 89.478 35.7418H79.1764C79.5974 38.3994 81.2059 39.4627 83.8484 39.4627C85.3804 39.4627 86.8355 39.2728 88.3675 38.6651V42.4618C86.8739 43.1454 85.1889 43.4111 83.159 43.4111C77.1464 43.4111 73.8529 39.7665 73.8529 33.8055Z" fill="black"/>
<mask id="mask0_503_2" style="mask-type:alpha" maskUnits="userSpaceOnUse" x="0" y="0" width="300" height="60">
<path d="M0 60H299.874V0.0480003H0V60Z" fill="white"/>
</mask>
<g mask="url(#mask0_503_2)">
<path fill-rule="evenodd" clip-rule="evenodd" d="M91.9569 42.8049H97.0885V15.0879H91.9569V42.8049Z" fill="black"/>
<path fill-rule="evenodd" clip-rule="evenodd" d="M110.288 32.2498C110.288 29.6681 109.522 28.2632 107.569 28.2632C105.616 28.2632 104.697 29.7816 104.505 32.2498H110.288ZM99.3734 33.6928C99.3734 27.8072 102.36 24.0864 107.492 24.0864C112.739 24.0864 115.611 28.2632 114.998 35.6291H104.697C105.118 38.2866 106.726 39.3499 109.369 39.3499C110.901 39.3499 112.356 39.1601 113.888 38.5524V42.3491C112.394 43.0326 110.709 43.2988 108.679 43.2988C102.667 43.2988 99.3734 39.6538 99.3734 33.6928Z" fill="black"/>
<path fill-rule="evenodd" clip-rule="evenodd" d="M122.444 36.9958C123.057 38.135 124.014 38.8563 125.24 38.8563C127.423 38.8563 128.265 36.9958 128.265 33.6928C128.265 30.3894 127.423 28.529 125.24 28.529C124.014 28.529 123.057 29.2503 122.444 30.3894V36.9958ZM126.734 43.2988C124.666 43.2988 123.325 42.4254 122.444 41.438V51.158H117.313V24.5801H121.908V26.4405C122.751 25.2633 124.244 24.0864 126.619 24.0864C131.559 24.0864 133.359 28.5667 133.359 33.6928C133.359 39.3118 131.291 43.2988 126.734 43.2988Z" fill="black"/>
<path fill-rule="evenodd" clip-rule="evenodd" d="M145.823 32.2498C145.823 29.6681 145.057 28.2632 143.104 28.2632C141.151 28.2632 140.232 29.7816 140.041 32.2498H145.823ZM134.909 33.6928C134.909 27.8072 137.896 24.0864 143.028 24.0864C148.274 24.0864 151.147 28.2632 150.534 35.6291H140.232C140.653 38.2866 142.262 39.3499 144.904 39.3499C146.436 39.3499 147.891 39.1601 149.423 38.5524V42.3491C147.93 43.0326 146.245 43.2988 144.215 43.2988C138.202 43.2988 134.909 39.6538 134.909 33.6928Z" fill="black"/>
<path fill-rule="evenodd" clip-rule="evenodd" d="M152.595 24.5801H157.191V27.3517C158.301 25.0357 160.369 23.9728 163.127 24.2004V29.3643C160.676 29.0604 158.723 29.9338 157.727 32.4774V42.8051H152.595V24.5801Z" fill="black"/>
<path fill-rule="evenodd" clip-rule="evenodd" d="M167.393 28.9844H164.98V24.5799H167.393V22.1881C167.393 17.4421 170.419 15.7334 173.712 15.7334C175.052 15.7334 176.01 15.9232 177.044 16.3411V20.5175C176.431 20.2518 175.703 20.1378 174.976 20.1378C173.52 20.1378 172.525 20.8214 172.525 22.3779V24.5799H176.201V28.9844H172.525V42.8049H167.393V28.9844Z" fill="black"/>
<path fill-rule="evenodd" clip-rule="evenodd" d="M182.071 33.6926C182.071 37.0338 182.952 38.856 185.173 38.856C187.356 38.856 188.237 37.0338 188.237 33.6926C188.237 30.351 187.356 28.491 185.173 28.491C182.952 28.491 182.071 30.351 182.071 33.6926ZM193.407 33.6926C193.407 39.6918 190.458 43.2986 185.173 43.2986C179.85 43.2986 176.901 39.6918 176.901 33.6926C176.901 27.6935 179.85 24.0866 185.173 24.0866C190.458 24.0866 193.407 27.6553 193.407 33.6926Z" fill="black"/>
<path fill-rule="evenodd" clip-rule="evenodd" d="M195.253 24.5801H199.848V27.3517C200.959 25.0357 203.027 23.9728 205.784 24.2004V29.3643C203.333 29.0604 201.38 29.9338 200.384 32.4774V42.8051H195.253V24.5801Z" fill="black"/>
<path fill-rule="evenodd" clip-rule="evenodd" d="M231.744 29.9337V42.805H226.689V30.9966C226.689 29.5159 225.999 28.7946 224.774 28.7946C223.701 28.7946 222.859 29.4019 222.208 30.427V42.805H217.191V30.9966C217.191 29.5159 216.463 28.7946 215.276 28.7946C214.242 28.7946 213.361 29.4019 212.71 30.5033V42.805H207.655V24.58H212.251V26.2887C213.323 24.922 214.893 24.0863 216.885 24.0863C218.876 24.0863 220.37 24.922 221.25 26.2887C222.591 24.7322 224.238 24.0863 226.229 24.0863C229.944 24.0863 231.744 26.6685 231.744 29.9337Z" fill="black"/>
<path fill-rule="evenodd" clip-rule="evenodd" d="M243.876 38.7802V35.2874C243.225 35.1352 242.65 35.0594 242.038 35.0594C240.161 35.0594 238.897 35.6671 238.897 37.4894C238.897 39.1218 239.893 39.8431 241.119 39.8431C242.267 39.8431 243.072 39.5019 243.876 38.7802ZM250.693 39.1599V42.7291C249.927 42.9567 249.161 43.0707 248.242 43.0707C246.825 43.0707 245.523 42.6528 244.757 41.6658C243.378 42.7668 241.731 43.2987 239.816 43.2987C236.676 43.2987 233.957 41.4759 233.957 37.6411C233.957 33.7304 236.829 31.7941 240.927 31.7941C241.923 31.7941 242.765 31.9081 243.876 32.1361V31.1487C243.876 29.6679 243.186 28.3771 240.659 28.3771C238.591 28.3771 236.638 28.8704 235.106 29.5158V25.1495C236.791 24.5422 239.05 24.0862 241.157 24.0862C246.25 24.0862 248.893 26.3268 248.893 31.5284V38.0208C248.893 38.9319 249.352 39.2358 250.08 39.2358C250.271 39.2358 250.501 39.1981 250.693 39.1599Z" fill="black"/>
<path fill-rule="evenodd" clip-rule="evenodd" d="M252.589 24.5801H257.184V26.2888C258.218 25.0738 259.75 24.0864 262.163 24.0864C265.073 24.0864 267.716 26.099 267.716 29.8957V42.8051H262.584V30.9967C262.584 29.4401 261.818 28.7947 260.478 28.7947C259.137 28.7947 258.218 29.6681 257.72 30.617V42.8051H252.589V24.5801Z" fill="black"/>
<path fill-rule="evenodd" clip-rule="evenodd" d="M269.857 33.8443C269.857 27.5799 273.533 24.0866 278.588 24.0866C280.159 24.0866 281.346 24.3142 282.61 24.9219V29.2123C281.652 28.7186 280.656 28.4529 279.393 28.4529C276.712 28.4529 275.027 30.3892 275.027 33.6926C275.027 36.996 276.52 38.856 279.163 38.856C280.733 38.856 281.843 38.5145 282.801 38.097V42.501C281.652 43.0329 280.235 43.2986 278.359 43.2986C273.418 43.2986 269.857 39.9193 269.857 33.8443Z" fill="black"/>
<path fill-rule="evenodd" clip-rule="evenodd" d="M295.082 32.2498C295.082 29.6681 294.316 28.2632 292.363 28.2632C290.41 28.2632 289.491 29.7816 289.299 32.2498H295.082ZM284.167 33.6928C284.167 27.8072 287.154 24.0864 292.286 24.0864C297.533 24.0864 300.405 28.2632 299.793 35.6291H289.491C289.912 38.2866 291.52 39.3499 294.163 39.3499C295.695 39.3499 297.15 39.1601 298.682 38.5524V42.3491C297.188 43.0326 295.503 43.2988 293.473 43.2988C287.461 43.2988 284.167 39.6538 284.167 33.6928Z" fill="black"/>
<path fill-rule="evenodd" clip-rule="evenodd" d="M136.724 55.1291H141.397C141.366 53.1996 140.68 52.1402 139.1 52.1402C137.489 52.1402 136.803 53.1838 136.724 55.1291ZM142.418 59.3196C142.466 59.5571 142.386 59.6835 142.163 59.7311C141.573 59.8734 140.616 59.9998 139.611 59.9998C136.915 59.9998 135.591 58.7505 135.591 55.7775V55.5088C135.591 52.8992 136.612 51.3019 139.068 51.3019C142.227 51.3019 142.339 53.8322 142.402 55.2872L142.418 55.4925C142.418 55.7299 142.307 55.8564 142.067 55.8564H136.724C136.74 58.2285 137.633 59.1619 139.738 59.1619C140.727 59.1619 141.525 59.0192 142.035 58.9245C142.307 58.8769 142.37 59.0509 142.386 59.1619L142.418 59.3196Z" fill="black"/>
<path fill-rule="evenodd" clip-rule="evenodd" d="M144.971 57.5485C144.971 58.7824 145.848 59.241 147.395 59.241C148.368 59.241 149.086 59.0507 149.373 58.9401V56.1887C149.054 56.0147 148.225 55.7777 147.251 55.7777C145.72 55.7777 144.971 56.3622 144.971 57.438V57.5485ZM149.373 55.4297V53.7535C149.373 52.7884 148.895 52.14 147.331 52.14C146.502 52.14 145.417 52.2985 144.907 52.3932C144.636 52.4408 144.604 52.3774 144.54 52.1245L144.508 51.9977C144.444 51.7131 144.556 51.6342 144.795 51.5867C145.481 51.4285 146.741 51.3017 147.571 51.3017C149.708 51.3017 150.442 52.14 150.442 53.7535V59.1458C150.442 59.3987 150.394 59.478 150.091 59.5572C149.613 59.7467 148.608 60 147.331 60C145.353 60 143.838 59.4462 143.838 57.5961V57.3745C143.838 55.8724 144.971 55.0341 146.996 55.0341C147.858 55.0341 148.608 55.1764 149.373 55.4297Z" fill="black"/>
<path fill-rule="evenodd" clip-rule="evenodd" d="M158.082 51.9821C158.051 52.2032 158.003 52.2666 157.811 52.2508C157.109 52.1715 156.918 52.1402 156.216 52.1402C154.286 52.1402 153.473 53.3419 153.473 55.5242V55.7934C153.473 58.0232 154.334 59.1619 156.296 59.1619C156.966 59.1619 157.444 59.0985 157.859 59.0351C158.067 59.0034 158.098 59.2091 158.114 59.3196L158.146 59.5095C158.178 59.7311 158.098 59.7945 157.875 59.8258C157.189 59.9368 156.583 59.9998 156.088 59.9998C153.441 59.9998 152.34 58.5448 152.34 55.7616V55.5242C152.34 52.8204 153.473 51.3019 156.009 51.3019C156.79 51.3019 157.205 51.3495 157.859 51.4601C158.051 51.4918 158.162 51.5552 158.13 51.7922L158.082 51.9821Z" fill="black"/>
<path fill-rule="evenodd" clip-rule="evenodd" d="M166.473 59.4938C166.473 59.7312 166.361 59.8418 166.138 59.8418H165.771C165.532 59.8418 165.42 59.7312 165.42 59.4938V54.3543C165.42 53.0575 164.83 52.1875 163.378 52.1875C162.517 52.1875 161.368 52.4879 160.953 52.6936V59.4938C160.953 59.7312 160.842 59.8418 160.603 59.8418H160.236C159.997 59.8418 159.885 59.7312 159.885 59.4938V48.4079C159.885 48.1709 159.997 48.0599 160.236 48.0599H160.603C160.842 48.0599 160.953 48.1709 160.953 48.4079V51.8236C161.783 51.5236 162.788 51.3021 163.665 51.3021C165.659 51.3021 166.473 52.4725 166.473 54.2592V59.4938Z" fill="black"/>
<path fill-rule="evenodd" clip-rule="evenodd" d="M174.831 59.2725C174.863 59.4936 174.879 59.6205 174.624 59.6993C174.337 59.7782 174.066 59.8416 173.763 59.8416C172.838 59.8416 172.295 59.4623 172.295 58.0549V51.808C172.295 51.571 172.407 51.46 172.63 51.46H172.997C173.236 51.46 173.348 51.571 173.348 51.808V58.0549C173.348 58.7029 173.539 59.0033 174.018 59.0033C174.193 59.0033 174.433 58.9562 174.592 58.9086C174.72 58.8769 174.784 58.972 174.816 59.1619L174.831 59.2725ZM172.598 50.0685C172.359 50.0685 172.247 49.9579 172.247 49.7205V48.8826C172.247 48.6452 172.359 48.5346 172.598 48.5346H173.061C173.284 48.5346 173.396 48.6452 173.396 48.8826V49.7205C173.396 49.9579 173.284 50.0685 173.061 50.0685H172.598Z" fill="black"/>
<path fill-rule="evenodd" clip-rule="evenodd" d="M182.631 59.4938C182.631 59.7312 182.519 59.8418 182.296 59.8418H181.929C181.69 59.8418 181.578 59.7312 181.578 59.4938V54.3543C181.578 53.0575 180.988 52.1875 179.537 52.1875C178.676 52.1875 177.527 52.4879 177.112 52.6936V59.4938C177.112 59.7312 177.001 59.8418 176.762 59.8418H176.395C176.155 59.8418 176.044 59.7312 176.044 59.4938V52.4562C176.044 52.2192 176.155 52.0611 176.379 51.9505C177.033 51.6496 178.373 51.3021 179.617 51.3021C181.754 51.3021 182.631 52.4562 182.631 54.2275V59.4938Z" fill="black"/>
<path fill-rule="evenodd" clip-rule="evenodd" d="M184.945 52.2984H184.37C184.131 52.2984 184.02 52.1878 184.02 51.9504V51.8081C184.02 51.5711 184.131 51.4601 184.37 51.4601H184.945V50.0051C184.945 49.7681 185.056 49.6571 185.296 49.6571H185.662C185.902 49.6571 186.013 49.7681 186.013 50.0051V51.4601H187.529C187.784 51.4601 187.88 51.5711 187.88 51.8081V51.9504C187.88 52.1878 187.784 52.2984 187.529 52.2984H186.013V57.6906C186.013 58.4659 186.269 59.0034 187.114 59.0034C187.322 59.0034 187.625 58.9721 187.928 58.8928C188.071 58.8769 188.167 59.0034 188.167 59.2249V59.3831C188.167 59.6205 188.151 59.6835 187.896 59.7152C187.593 59.8099 187.306 59.8416 187.003 59.8416C185.535 59.8416 184.945 59.1144 184.945 57.6906V52.2984Z" fill="black"/>
<path fill-rule="evenodd" clip-rule="evenodd" d="M190.193 55.1291H194.867C194.835 53.1996 194.149 52.1402 192.57 52.1402C190.959 52.1402 190.273 53.1838 190.193 55.1291ZM195.887 59.3196C195.935 59.5571 195.855 59.6835 195.632 59.7311C195.042 59.8734 194.085 59.9998 193.08 59.9998C190.385 59.9998 189.06 58.7505 189.06 55.7775V55.5088C189.06 52.8992 190.082 51.3019 192.538 51.3019C195.696 51.3019 195.808 53.8322 195.871 55.2872L195.887 55.4925C195.887 55.7299 195.776 55.8564 195.536 55.8564H190.193C190.209 58.2285 191.102 59.1619 193.208 59.1619C194.197 59.1619 194.994 59.0192 195.504 58.9245C195.776 58.8769 195.839 59.0509 195.855 59.1619L195.887 59.3196Z" fill="black"/>
<path fill-rule="evenodd" clip-rule="evenodd" d="M202.252 51.9504C202.204 52.235 202.172 52.2822 201.949 52.2667C201.582 52.1879 201.151 52.1716 200.737 52.1716C200.21 52.1716 199.413 52.2822 198.918 52.5042V59.4937C198.918 59.7312 198.807 59.8417 198.567 59.8417H198.2C197.961 59.8417 197.85 59.7312 197.85 59.4937V52.1399C197.85 51.9504 197.929 51.8082 198.185 51.7293C198.95 51.3967 199.795 51.302 200.657 51.302C201.279 51.302 201.693 51.3496 202.076 51.4284C202.332 51.476 202.316 51.6024 202.268 51.8553L202.252 51.9504Z" fill="black"/>
<path fill-rule="evenodd" clip-rule="evenodd" d="M204.119 57.5485C204.119 58.7824 204.996 59.241 206.543 59.241C207.516 59.241 208.234 59.0507 208.521 58.9401V56.1887C208.202 56.0147 207.372 55.7777 206.399 55.7777C204.868 55.7777 204.119 56.3622 204.119 57.438V57.5485ZM208.521 55.4297V53.7535C208.521 52.7884 208.042 52.14 206.479 52.14C205.65 52.14 204.565 52.2985 204.055 52.3932C203.784 52.4408 203.752 52.3774 203.688 52.1245L203.656 51.9977C203.592 51.7131 203.704 51.6342 203.943 51.5867C204.629 51.4285 205.889 51.3017 206.718 51.3017C208.856 51.3017 209.589 52.14 209.589 53.7535V59.1458C209.589 59.3987 209.542 59.478 209.239 59.5572C208.76 59.7467 207.755 60 206.479 60C204.501 60 202.986 59.4462 202.986 57.5961V57.3745C202.986 55.8724 204.119 55.0341 206.144 55.0341C207.006 55.0341 207.755 55.1764 208.521 55.4297Z" fill="black"/>
<path fill-rule="evenodd" clip-rule="evenodd" d="M217.23 51.9821C217.198 52.2032 217.15 52.2666 216.959 52.2508C216.257 52.1715 216.066 52.1402 215.364 52.1402C213.434 52.1402 212.62 53.3419 212.62 55.5242V55.7934C212.62 58.0232 213.482 59.1619 215.444 59.1619C216.114 59.1619 216.592 59.0985 217.007 59.0351C217.214 59.0034 217.246 59.2091 217.262 59.3196L217.294 59.5095C217.326 59.7311 217.246 59.7945 217.023 59.8258C216.337 59.9368 215.731 59.9998 215.236 59.9998C212.588 59.9998 211.488 58.5448 211.488 55.7616V55.5242C211.488 52.8204 212.62 51.3019 215.157 51.3019C215.938 51.3019 216.353 51.3495 217.007 51.4601C217.198 51.4918 217.31 51.5552 217.278 51.7922L217.23 51.9821Z" fill="black"/>
<path fill-rule="evenodd" clip-rule="evenodd" d="M219.192 52.2984H218.618C218.379 52.2984 218.267 52.1878 218.267 51.9504V51.8081C218.267 51.5711 218.379 51.4601 218.618 51.4601H219.192V50.0051C219.192 49.7681 219.304 49.6571 219.543 49.6571H219.91C220.149 49.6571 220.261 49.7681 220.261 50.0051V51.4601H221.776C222.031 51.4601 222.127 51.5711 222.127 51.8081V51.9504C222.127 52.1878 222.031 52.2984 221.776 52.2984H220.261V57.6906C220.261 58.4659 220.516 59.0034 221.361 59.0034C221.569 59.0034 221.872 58.9721 222.175 58.8928C222.319 58.8769 222.414 59.0034 222.414 59.2249V59.3831C222.414 59.6205 222.398 59.6835 222.143 59.7152C221.84 59.8099 221.553 59.8416 221.25 59.8416C219.782 59.8416 219.192 59.1144 219.192 57.6906V52.2984Z" fill="black"/>
<path fill-rule="evenodd" clip-rule="evenodd" d="M226.258 59.2725C226.29 59.4936 226.306 59.6205 226.051 59.6993C225.764 59.7782 225.493 59.8416 225.19 59.8416C224.265 59.8416 223.722 59.4623 223.722 58.0549V51.808C223.722 51.571 223.834 51.46 224.057 51.46H224.424C224.663 51.46 224.775 51.571 224.775 51.808V58.0549C224.775 58.7029 224.966 59.0033 225.445 59.0033C225.62 59.0033 225.86 58.9562 226.019 58.9086C226.147 58.8769 226.211 58.972 226.243 59.1619L226.258 59.2725ZM224.025 50.0685C223.786 50.0685 223.675 49.9579 223.675 49.7205V48.8826C223.675 48.6452 223.786 48.5346 224.025 48.5346H224.488C224.711 48.5346 224.823 48.6452 224.823 48.8826V49.7205C224.823 49.9579 224.711 50.0685 224.488 50.0685H224.025Z" fill="black"/>
<path fill-rule="evenodd" clip-rule="evenodd" d="M233.325 55.5087C233.325 53.3739 232.48 52.1401 230.757 52.1401C229.018 52.1401 228.189 53.3739 228.189 55.5087V55.7778C228.189 57.8649 229.018 59.1618 230.757 59.1618C232.48 59.1618 233.325 57.8649 233.325 55.7778V55.5087ZM227.056 55.5087C227.056 52.8519 228.301 51.3018 230.757 51.3018C233.214 51.3018 234.458 52.8519 234.458 55.5087V55.7778C234.458 58.4182 233.214 60.0001 230.757 60.0001C228.301 60.0001 227.056 58.4182 227.056 55.7778V55.5087Z" fill="black"/>
<path fill-rule="evenodd" clip-rule="evenodd" d="M242.944 59.4938C242.944 59.7312 242.832 59.8418 242.609 59.8418H242.242C242.003 59.8418 241.891 59.7312 241.891 59.4938V54.3543C241.891 53.0575 241.301 52.1875 239.849 52.1875C238.988 52.1875 237.84 52.4879 237.425 52.6936V59.4938C237.425 59.7312 237.313 59.8418 237.074 59.8418H236.707C236.468 59.8418 236.356 59.7312 236.356 59.4938V52.4562C236.356 52.2192 236.468 52.0611 236.691 51.9505C237.345 51.6496 238.685 51.3021 239.929 51.3021C242.066 51.3021 242.944 52.4562 242.944 54.2275V59.4938Z" fill="black"/>
<path fill-rule="evenodd" clip-rule="evenodd" d="M260.251 59.4938C260.251 59.7312 260.139 59.8418 259.9 59.8418H259.533C259.294 59.8418 259.182 59.7312 259.182 59.4938V54.4649C259.182 53.1046 258.624 52.1875 257.188 52.1875C256.423 52.1875 255.418 52.6148 255.019 52.9152V59.4938C255.019 59.7312 254.923 59.8418 254.684 59.8418H254.301C254.062 59.8418 253.95 59.7312 253.95 59.4938V53.5319C253.95 52.7253 253.392 52.1875 251.94 52.1875C251.207 52.1875 250.186 52.4879 249.803 52.6936V59.4938C249.803 59.7312 249.691 59.8418 249.452 59.8418H249.085C248.846 59.8418 248.734 59.7312 248.734 59.4938V52.4562C248.734 52.2192 248.83 52.0611 249.069 51.9822C249.691 51.6659 250.888 51.3021 252.036 51.3021C253.216 51.3021 254.014 51.5708 254.477 52.0452C255.274 51.6342 256.343 51.3021 257.268 51.3021C259.373 51.3021 260.251 52.5196 260.251 54.3861V59.4938Z" fill="black"/>
<path fill-rule="evenodd" clip-rule="evenodd" d="M263.122 57.5485C263.122 58.7824 263.999 59.241 265.547 59.241C266.52 59.241 267.238 59.0507 267.525 58.9401V56.1887C267.206 56.0147 266.376 55.7777 265.403 55.7777C263.872 55.7777 263.122 56.3622 263.122 57.438V57.5485ZM267.525 55.4297V53.7535C267.525 52.7884 267.046 52.14 265.483 52.14C264.653 52.14 263.569 52.2985 263.058 52.3932C262.787 52.4408 262.755 52.3774 262.691 52.1245L262.66 51.9977C262.596 51.7131 262.707 51.6342 262.947 51.5867C263.633 51.4285 264.893 51.3017 265.722 51.3017C267.86 51.3017 268.593 52.14 268.593 53.7535V59.1458C268.593 59.3987 268.546 59.478 268.243 59.5572C267.764 59.7467 266.759 60 265.483 60C263.505 60 261.99 59.4462 261.99 57.5961V57.3745C261.99 55.8724 263.122 55.0341 265.148 55.0341C266.01 55.0341 266.759 55.1764 267.525 55.4297Z" fill="black"/>
<path fill-rule="evenodd" clip-rule="evenodd" d="M270.954 52.2984H270.38C270.141 52.2984 270.029 52.1878 270.029 51.9504V51.8081C270.029 51.5711 270.141 51.4601 270.38 51.4601H270.954V50.0051C270.954 49.7681 271.066 49.6571 271.305 49.6571H271.672C271.911 49.6571 272.023 49.7681 272.023 50.0051V51.4601H273.538C273.793 51.4601 273.889 51.5711 273.889 51.8081V51.9504C273.889 52.1878 273.793 52.2984 273.538 52.2984H272.023V57.6906C272.023 58.4659 272.278 59.0034 273.123 59.0034C273.331 59.0034 273.634 58.9721 273.937 58.8928C274.081 58.8769 274.176 59.0034 274.176 59.2249V59.3831C274.176 59.6205 274.16 59.6835 273.905 59.7152C273.602 59.8099 273.315 59.8416 273.012 59.8416C271.544 59.8416 270.954 59.1144 270.954 57.6906V52.2984Z" fill="black"/>
<path fill-rule="evenodd" clip-rule="evenodd" d="M275.612 52.2984H275.038C274.798 52.2984 274.687 52.1878 274.687 51.9504V51.8081C274.687 51.5711 274.798 51.4601 275.038 51.4601H275.612V50.0051C275.612 49.7681 275.724 49.6571 275.963 49.6571H276.33C276.569 49.6571 276.681 49.7681 276.681 50.0051V51.4601H278.196C278.451 51.4601 278.547 51.5711 278.547 51.8081V51.9504C278.547 52.1878 278.451 52.2984 278.196 52.2984H276.681V57.6906C276.681 58.4659 276.936 59.0034 277.781 59.0034C277.989 59.0034 278.292 58.9721 278.595 58.8928C278.738 58.8769 278.834 59.0034 278.834 59.2249V59.3831C278.834 59.6205 278.818 59.6835 278.563 59.7152C278.26 59.8099 277.973 59.8416 277.67 59.8416C276.202 59.8416 275.612 59.1144 275.612 57.6906V52.2984Z" fill="black"/>
<path fill-rule="evenodd" clip-rule="evenodd" d="M280.86 55.1291H285.534C285.502 53.1996 284.816 52.1402 283.237 52.1402C281.626 52.1402 280.94 53.1838 280.86 55.1291ZM286.555 59.3196C286.603 59.5571 286.523 59.6835 286.3 59.7311C285.709 59.8734 284.752 59.9998 283.747 59.9998C281.052 59.9998 279.728 58.7505 279.728 55.7775V55.5088C279.728 52.8992 280.748 51.3019 283.205 51.3019C286.363 51.3019 286.475 53.8322 286.539 55.2872L286.555 55.4925C286.555 55.7299 286.443 55.8564 286.204 55.8564H280.86C280.876 58.2285 281.769 59.1619 283.875 59.1619C284.864 59.1619 285.661 59.0192 286.172 58.9245C286.443 58.8769 286.507 59.0509 286.523 59.1619L286.555 59.3196Z" fill="black"/>
<path fill-rule="evenodd" clip-rule="evenodd" d="M292.919 51.9504C292.871 52.235 292.839 52.2822 292.616 52.2667C292.249 52.1879 291.819 52.1716 291.404 52.1716C290.878 52.1716 290.08 52.2822 289.586 52.5042V59.4937C289.586 59.7312 289.474 59.8417 289.235 59.8417H288.868C288.628 59.8417 288.517 59.7312 288.517 59.4937V52.1399C288.517 51.9504 288.596 51.8082 288.852 51.7293C289.618 51.3967 290.463 51.302 291.324 51.302C291.946 51.302 292.361 51.3496 292.744 51.4284C292.999 51.476 292.983 51.6024 292.935 51.8553L292.919 51.9504Z" fill="black"/>
<path fill-rule="evenodd" clip-rule="evenodd" d="M299.571 52.0137C299.539 52.3455 299.459 52.3617 299.252 52.33C298.837 52.2507 298.422 52.1402 297.354 52.1402C296.11 52.1402 295.105 52.3455 295.105 53.326C295.105 55.4612 299.874 54.0855 299.874 57.58C299.874 59.1773 298.693 60.0002 296.652 60.0002C295.759 60.0002 294.77 59.8575 294.243 59.7782C293.956 59.7469 293.908 59.6835 293.908 59.3989V59.2883C293.908 58.9562 294.052 58.9086 294.291 58.9403C294.674 59.0033 295.631 59.1619 296.556 59.1619C298.343 59.1619 298.789 58.4659 298.789 57.6117C298.789 54.7969 294.036 56.299 294.036 53.326C294.036 51.634 295.472 51.3019 297.178 51.3019C298.422 51.3019 299.124 51.4442 299.332 51.4917C299.555 51.5235 299.635 51.5865 299.603 51.8869L299.571 52.0137Z" fill="black"/>
<path fill-rule="evenodd" clip-rule="evenodd" d="M31.4959 0.0478344H1.80372C0.807757 0.0478344 -0.000167847 0.848406 -0.000167847 1.83626V10.6091C-0.000167847 11.342 0.143348 11.7457 0.490466 12.0898C3.03096 14.6085 8.21266 19.7454 10.754 22.265C10.9165 22.4261 11.1556 22.325 11.1556 22.1201V11.7371C11.1556 11.5173 10.9758 11.3385 10.7536 11.3385H2.63802C2.11021 11.3385 1.68225 10.9143 1.68225 10.391V2.65998C1.68225 2.13669 2.11021 1.71241 2.63802 1.71241H29.8555C30.3837 1.71241 30.8116 2.13669 30.8116 2.65998V10.3918C30.8116 10.9147 30.3837 11.3385 29.8563 11.3385H21.7416C21.519 11.3385 21.3387 11.5173 21.3387 11.738V41.8541C21.3387 42.377 20.9112 42.8008 20.3838 42.8008H12.3145C12.1027 42.8008 11.9609 43.0623 12.1109 43.2105C13.8776 44.9608 17.4323 48.4863 19.2374 50.276C19.7225 50.7568 20.3514 51.158 21.1632 51.158H28.9144C29.6484 51.158 30.2432 50.5683 30.2432 49.8405V31.9014C30.2432 31.6807 30.4235 31.502 30.6457 31.502H31.4959C40.2059 31.502 48.6634 26.2344 48.6634 15.7143C48.6634 6.34783 42.1516 0.0478344 31.4959 0.0478344Z" fill="url(#paint0_linear_503_2)"/>
</g>
</g>
<defs>
<linearGradient id="paint0_linear_503_2" x1="19.4643" y1="25.6029" x2="48.6628" y2="25.6029" gradientUnits="userSpaceOnUse">
<stop stop-color="#3047B0"/>
<stop offset="1" stop-color="#0087FF"/>
</linearGradient>
<clipPath id="clip0_503_2">
<rect width="300" height="60" fill="white"/>
</clipPath>
</defs>
</svg>
