<svg width="336" height="203" viewBox="0 0 336 203" fill="none" xmlns="http://www.w3.org/2000/svg">
<path d="M335.391 161.065C335.391 185.435 267.802 203 203.714 203C139.627 203 1.26086 189.816 1.26086 165.446C1.26086 141.076 63.9127 116 128 116C192.087 116 335.391 136.695 335.391 161.065Z" fill="#0099FF" fill-opacity="0.07"/>
<path d="M260.32 23.9434H178.602V22.2592H141.547V23.9434H59.4927C58.0266 23.9434 56.6205 24.5258 55.5838 25.5625C54.5471 26.5992 53.9646 28.0053 53.9646 29.4715V141.368C53.9646 142.834 54.5471 144.24 55.5838 145.277C56.6205 146.313 58.0266 146.896 59.4927 146.896H260.32C261.786 146.896 263.192 146.313 264.228 145.277C265.265 144.24 265.848 142.834 265.848 141.368V29.4708C265.847 28.0048 265.265 26.5989 264.228 25.5623C263.192 24.5257 261.786 23.9434 260.32 23.9434Z" fill="#303030"/>
<path d="M258.436 33.7121H61.376V144.874H258.436V33.7121Z" fill="#E6E6E6"/>
<path d="M250.146 39.5907H69.7331V135.676H250.146V39.5907Z" fill="white"/>
<path d="M159.738 30.6807C160.854 30.6807 161.759 29.7758 161.759 28.6595C161.759 27.5433 160.854 26.6383 159.738 26.6383C158.621 26.6383 157.716 27.5433 157.716 28.6595C157.716 29.7758 158.621 30.6807 159.738 30.6807Z" fill="#6C63FF"/>
<path d="M271.38 142.853H252.148V141.467C252.148 141.394 252.119 141.324 252.068 141.273C252.016 141.221 251.946 141.192 251.874 141.192H245.28C245.207 141.192 245.137 141.221 245.085 141.273C245.034 141.324 245.005 141.394 245.005 141.467V142.853H240.884V141.467C240.884 141.394 240.855 141.324 240.803 141.273C240.752 141.221 240.682 141.192 240.609 141.192H234.015C233.942 141.192 233.873 141.221 233.821 141.273C233.769 141.324 233.741 141.394 233.741 141.467V142.853H229.62V141.467C229.62 141.394 229.591 141.324 229.539 141.273C229.488 141.221 229.418 141.192 229.345 141.192H222.751C222.678 141.192 222.608 141.221 222.557 141.273C222.505 141.324 222.476 141.394 222.476 141.467V142.853H218.355V141.467C218.355 141.394 218.326 141.324 218.275 141.273C218.223 141.221 218.153 141.192 218.08 141.192H211.487C211.414 141.192 211.344 141.221 211.293 141.273C211.241 141.324 211.212 141.394 211.212 141.467V142.853H207.091V141.467C207.091 141.394 207.062 141.324 207.01 141.273C206.959 141.221 206.889 141.192 206.816 141.192H200.223C200.15 141.192 200.08 141.221 200.028 141.273C199.977 141.324 199.948 141.394 199.948 141.467V142.853H195.826V141.467C195.826 141.394 195.797 141.324 195.746 141.273C195.694 141.221 195.625 141.192 195.552 141.192H188.959C188.887 141.192 188.817 141.221 188.765 141.273C188.714 141.324 188.685 141.394 188.685 141.467V142.853H184.562V141.467C184.562 141.394 184.533 141.324 184.482 141.273C184.43 141.221 184.36 141.192 184.287 141.192H132.636C132.563 141.192 132.493 141.221 132.442 141.273C132.39 141.324 132.361 141.394 132.361 141.467V142.853H128.241V141.467C128.241 141.394 128.212 141.324 128.16 141.273C128.108 141.221 128.039 141.192 127.966 141.192H121.372C121.299 141.192 121.229 141.221 121.178 141.273C121.126 141.324 121.097 141.394 121.097 141.467V142.853H116.976V141.467C116.976 141.394 116.947 141.324 116.896 141.273C116.844 141.221 116.774 141.192 116.701 141.192H110.108C110.035 141.192 109.965 141.221 109.913 141.273C109.862 141.324 109.833 141.394 109.833 141.467V142.853H105.712V141.467C105.712 141.394 105.683 141.324 105.631 141.273C105.58 141.221 105.51 141.192 105.437 141.192H98.8434C98.7705 141.192 98.7006 141.221 98.6491 141.273C98.5976 141.324 98.5686 141.394 98.5686 141.467V142.853H94.4483V141.467C94.4483 141.394 94.4194 141.324 94.3678 141.273C94.3163 141.221 94.2464 141.192 94.1735 141.192H87.5791C87.5062 141.192 87.4363 141.221 87.3847 141.273C87.3332 141.324 87.3042 141.394 87.3042 141.467V142.853H83.1833V141.467C83.1833 141.394 83.1543 141.324 83.1028 141.273C83.0513 141.221 82.9814 141.192 82.9085 141.192H76.3147C76.2418 141.192 76.1719 141.221 76.1203 141.273C76.0688 141.324 76.0398 141.394 76.0398 141.467V142.853H71.9189V141.467C71.9189 141.394 71.89 141.324 71.8384 141.273C71.7869 141.221 71.717 141.192 71.6441 141.192H65.049C64.9762 141.192 64.9063 141.221 64.8547 141.273C64.8032 141.324 64.7742 141.394 64.7742 141.467V142.853H52.1376C50.3888 142.853 48.7116 143.548 47.475 144.784C46.2385 146.021 45.5438 147.698 45.5438 149.447V152.428C45.5438 154.177 46.2385 155.854 47.475 157.091C48.7116 158.327 50.3888 159.022 52.1376 159.022H271.38C273.129 159.022 274.806 158.327 276.042 157.091C277.279 155.854 277.974 154.177 277.974 152.429V149.447C277.974 147.698 277.279 146.021 276.043 144.785C274.806 143.548 273.129 142.853 271.38 142.853V142.853Z" fill="#303030"/>
<path d="M199.83 46.3299H120.05V130.193H199.83V46.3299Z" fill="#E6E6E6"/>
<path d="M333.255 158.742H0V159.37H333.255V158.742Z" fill="#E6E6E6"/>
<path d="M300.889 136.798C305.405 141.643 305.638 148.765 305.638 148.765C305.638 148.765 298.551 148.031 294.035 143.185C289.52 138.34 289.286 131.218 289.286 131.218C289.286 131.218 296.374 131.953 300.889 136.798Z" fill="#3047B0"/>
<path d="M315.104 144.361C310.259 148.876 303.137 149.11 303.137 149.11C303.137 149.11 303.872 142.022 308.717 137.507C313.562 132.991 320.684 132.758 320.684 132.758C320.684 132.758 319.95 139.846 315.104 144.361Z" fill="#3047B0"/>
<path d="M313.9 158.742H296.079C295.737 158.742 295.402 158.646 295.112 158.465C294.822 158.283 294.589 158.024 294.439 157.716L290.559 149.741C290.424 149.463 290.361 149.155 290.378 148.846C290.394 148.537 290.488 148.238 290.652 147.976C290.816 147.714 291.044 147.498 291.315 147.348C291.585 147.198 291.889 147.12 292.199 147.12H317.78C318.089 147.12 318.394 147.198 318.664 147.348C318.935 147.498 319.163 147.714 319.326 147.976C319.49 148.238 319.585 148.537 319.601 148.846C319.618 149.155 319.555 149.463 319.42 149.741L315.54 157.717C315.39 158.024 315.157 158.284 314.867 158.465C314.577 158.646 314.242 158.742 313.9 158.742L313.9 158.742Z" fill="#E5E5E5"/>
<path d="M19.1462 136.798C23.6617 141.643 23.895 148.765 23.895 148.765C23.895 148.765 16.8075 148.031 12.2921 143.185C7.77665 138.34 7.54327 131.218 7.54327 131.218C7.54327 131.218 14.6308 131.953 19.1462 136.798Z" fill="#0099FF"/>
<path d="M29.3302 158.742H11.5088C11.1668 158.742 10.8317 158.646 10.5418 158.465C10.252 158.283 10.019 158.024 9.86951 157.716L5.9895 149.741C5.854 149.463 5.79145 149.155 5.80773 148.846C5.82401 148.537 5.91859 148.238 6.08255 147.976C6.24652 147.714 6.47448 147.498 6.74498 147.348C7.01547 147.198 7.31961 147.12 7.62876 147.12H33.2105C33.5197 147.12 33.8238 147.198 34.0943 147.348C34.3648 147.498 34.5928 147.714 34.7567 147.976C34.9207 148.238 35.0153 148.537 35.0315 148.846C35.0478 149.155 34.9853 149.463 34.8498 149.741L30.9698 157.717C30.8203 158.024 30.5873 158.284 30.2974 158.465C30.0075 158.646 29.6724 158.742 29.3305 158.742L29.3302 158.742Z" fill="#E5E5E5"/>
<path d="M169.566 70.0701C175.422 70.0701 180.169 65.323 180.169 59.4672C180.169 53.6114 175.422 48.8643 169.566 48.8643C163.71 48.8643 158.963 53.6114 158.963 59.4672C158.963 65.323 163.71 70.0701 169.566 70.0701Z" fill="#A0616A"/>
<path d="M145.17 130.366L152.017 87.2605C152.382 84.9687 153.229 82.7807 154.505 80.8421C155.78 78.9034 157.454 77.2587 159.415 76.0172C161.375 74.7757 163.578 73.9659 165.875 73.6418C168.173 73.3176 170.514 73.4866 172.741 74.1373C176.636 75.2637 179.97 77.8015 182.094 81.2551C184.217 84.7086 184.977 88.8297 184.225 92.8134L177.063 131.309L145.17 130.366Z" fill="#3047B0"/>
<path d="M172.493 138.079C173.023 137.729 173.469 137.267 173.801 136.726C174.133 136.185 174.342 135.578 174.414 134.948C174.486 134.317 174.419 133.679 174.217 133.077C174.015 132.475 173.684 131.925 173.247 131.465L180.325 117.758L172.354 118.609L166.855 131.495C166.134 132.281 165.726 133.304 165.708 134.371C165.69 135.438 166.063 136.474 166.757 137.285C167.451 138.095 168.417 138.623 169.474 138.77C170.531 138.916 171.605 138.67 172.493 138.079L172.493 138.079Z" fill="#A0616A"/>
<path d="M174.009 129.047C173.618 128.992 173.252 128.819 172.962 128.55L170.253 126.048C169.961 125.776 169.759 125.421 169.675 125.031C169.59 124.641 169.628 124.234 169.782 123.866L175.195 111.037L174.427 85.6881C174.651 84.0436 175.52 82.5555 176.841 81.5513C178.163 80.5471 179.829 80.1089 181.473 80.3333C183.118 80.5576 184.606 81.426 185.61 82.7475C186.614 84.069 187.053 85.7353 186.828 87.3798L188.141 103.315C188.54 108.151 187.169 112.968 184.283 116.869L175.842 128.279C175.68 128.499 175.473 128.681 175.235 128.815C174.998 128.95 174.735 129.032 174.463 129.058C174.312 129.072 174.159 129.069 174.009 129.047Z" fill="#3047B0"/>
<path d="M108.507 53.6904C108.622 54.3144 108.873 54.9055 109.242 55.422C109.611 55.9386 110.088 56.368 110.641 56.68C111.193 56.9921 111.808 57.1792 112.44 57.2282C113.073 57.2772 113.709 57.1869 114.303 56.9636L124.165 68.8257L126.49 61.1536L116.768 51.0652C116.324 50.0953 115.541 49.3212 114.566 48.8892C113.591 48.4571 112.491 48.3969 111.475 48.7199C110.459 49.0429 109.596 49.7268 109.049 50.6425C108.502 51.5582 108.309 52.6424 108.507 53.6904Z" fill="#A0616A"/>
<path d="M116.233 58.6072C116.436 58.2682 116.738 57.9993 117.099 57.8364L120.459 56.3184C120.824 56.1549 121.229 56.1072 121.622 56.1817C122.014 56.2563 122.374 56.4495 122.652 56.7352L132.356 66.7212L155.999 75.8975C156.706 76.317 157.323 76.8717 157.816 77.5299C158.309 78.1881 158.667 78.937 158.87 79.7337C159.073 80.5304 159.117 81.3593 159 82.173C158.882 82.9868 158.606 83.7694 158.186 84.4763C157.766 85.1831 157.211 85.8002 156.552 86.2924C155.894 86.7846 155.144 87.1423 154.348 87.3448C153.551 87.5474 152.722 87.591 151.908 87.4731C151.095 87.3552 150.312 87.0781 149.606 86.6577L134.42 81.6536C129.811 80.1355 125.91 76.9948 123.443 72.8159L116.226 60.5945C116.088 60.3594 116 60.0978 115.969 59.8267C115.938 59.5556 115.965 59.281 116.047 59.0208C116.093 58.8762 116.155 58.7374 116.234 58.6075L116.233 58.6072Z" fill="#3047B0"/>
<path opacity="0.1" d="M178.166 96.2329L177.735 110.047L169.782 123.867L176.422 108.467L178.166 96.2329Z" fill="black"/>
<path d="M162.385 54.1527C163.479 55.4471 165.33 55.8121 167.037 55.9619C170.504 56.2659 175.546 55.7734 178.935 54.9904C179.177 57.3345 178.517 59.8617 179.898 61.7899C180.545 59.4555 180.921 57.0544 181.019 54.6339C181.061 53.5974 181.045 52.5219 180.623 51.569C180.201 50.616 179.281 49.8072 178.222 49.7987C179.009 49.2016 179.931 48.8074 180.906 48.651L177.552 46.9653L178.413 46.0808L172.34 45.7092L174.099 44.5917C171.451 44.2282 168.773 44.144 166.108 44.3404C164.871 44.4315 163.576 44.6058 162.574 45.3229C161.571 46.04 160.992 47.465 161.614 48.5179C160.835 48.6458 160.101 48.9706 159.482 49.4615C158.864 49.9524 158.381 50.5932 158.079 51.323C157.632 52.4563 157.673 53.7152 157.811 54.9229C158.039 56.8544 158.488 58.7534 159.149 60.5829" fill="#303030"/>
<path d="M207.712 27.5909L111.098 49.8962C110.623 50.0052 110.125 49.9215 109.712 49.6635C109.299 49.4055 109.005 48.9944 108.895 48.5202L103.362 24.5541C103.253 24.0797 103.337 23.5814 103.595 23.1685C103.853 22.7557 104.264 22.462 104.738 22.3519L201.353 0.0466315C201.828 -0.0623111 202.326 0.0213843 202.739 0.279356C203.152 0.537327 203.445 0.948509 203.556 1.42271L209.088 25.3888C209.197 25.8632 209.114 26.3615 208.856 26.7744C208.598 27.1872 208.187 27.4809 207.712 27.5909Z" fill="white"/>
<path d="M207.712 27.5909L111.098 49.8962C110.623 50.0052 110.125 49.9215 109.712 49.6635C109.299 49.4055 109.005 48.9944 108.895 48.5202L103.362 24.5541C103.253 24.0797 103.337 23.5814 103.595 23.1685C103.853 22.7557 104.264 22.462 104.738 22.3519L201.353 0.0466315C201.828 -0.0623111 202.326 0.0213843 202.739 0.279356C203.152 0.537327 203.445 0.948509 203.556 1.42271L209.088 25.3888C209.197 25.8632 209.114 26.3615 208.856 26.7744C208.598 27.1872 208.187 27.4809 207.712 27.5909ZM104.904 23.0678C104.619 23.1338 104.372 23.31 104.218 23.5577C104.063 23.8055 104.013 24.1045 104.078 24.3892L109.611 48.3553C109.677 48.6399 109.853 48.8867 110.101 49.0415C110.349 49.1963 110.648 49.2465 110.932 49.181L207.547 26.8757C207.832 26.8097 208.079 26.6335 208.234 26.3858C208.388 26.138 208.438 25.839 208.373 25.5542L202.84 1.58789C202.774 1.30328 202.598 1.05648 202.35 0.90166C202.102 0.746841 201.803 0.696663 201.518 0.762139L104.904 23.0678Z" fill="#E6E6E6"/>
<path d="M138.428 22.9937C138.269 23.0302 138.118 23.0978 137.984 23.1926C137.851 23.2874 137.737 23.4076 137.65 23.5463C137.563 23.685 137.504 23.8395 137.477 24.0009C137.45 24.1624 137.454 24.3276 137.491 24.4873C137.527 24.6469 137.595 24.7977 137.69 24.9312C137.785 25.0647 137.905 25.1781 138.044 25.2651C138.183 25.3521 138.337 25.4109 138.498 25.4382C138.66 25.4654 138.825 25.4606 138.985 25.424L138.989 25.423L196.252 12.2028C196.574 12.1279 196.853 11.9285 197.028 11.6483C197.203 11.3681 197.259 11.0299 197.185 10.7081C197.11 10.3862 196.911 10.1071 196.631 9.9318C196.352 9.75656 196.013 9.69957 195.692 9.77337L138.428 22.9937Z" fill="#E6E6E6"/>
<path d="M140.111 30.2821C139.951 30.3186 139.8 30.3862 139.667 30.4811C139.533 30.5759 139.42 30.6961 139.333 30.8348C139.246 30.9735 139.187 31.128 139.16 31.2894C139.132 31.4509 139.137 31.6161 139.174 31.7757C139.21 31.9353 139.278 32.0862 139.373 32.2197C139.467 32.3531 139.588 32.4666 139.726 32.5536C139.865 32.6406 140.02 32.6994 140.181 32.7266C140.343 32.7539 140.508 32.7491 140.667 32.7125L140.672 32.7115L165.312 27.0228C165.634 26.9489 165.914 26.75 166.09 26.47C166.265 26.1899 166.322 25.8516 166.249 25.5294C166.175 25.2072 165.976 24.9275 165.696 24.7518C165.416 24.5761 165.078 24.5188 164.756 24.5924L164.751 24.5934L140.111 30.2821Z" fill="#E6E6E6"/>
<path d="M122.774 39.1474C126.905 39.1474 130.253 35.7985 130.253 31.6675C130.253 27.5365 126.905 24.1877 122.774 24.1877C118.643 24.1877 115.294 27.5365 115.294 31.6675C115.294 35.7985 118.643 39.1474 122.774 39.1474Z" fill="#4FBC7B"/>
<path d="M122.563 35.9825C122.318 36.0394 122.062 36.0151 121.832 35.9134L121.818 35.9071L118.808 34.5407C118.668 34.4774 118.542 34.3872 118.437 34.2752C118.333 34.1631 118.251 34.0316 118.197 33.8879C118.143 33.7443 118.118 33.5915 118.123 33.4381C118.128 33.2848 118.164 33.134 118.227 32.9943C118.291 32.8547 118.381 32.7289 118.493 32.6242C118.605 32.5196 118.737 32.438 118.881 32.3843C119.024 32.3305 119.177 32.3056 119.331 32.311C119.484 32.3164 119.635 32.352 119.774 32.4157L121.725 33.3036L124.46 27.2918C124.589 27.0104 124.823 26.7913 125.113 26.6829C125.403 26.5744 125.723 26.5854 126.005 26.7135L125.988 26.7527L126.006 26.7133C126.287 26.8417 126.506 27.0765 126.614 27.3661C126.723 27.6557 126.712 27.9765 126.584 28.258L123.366 35.33C123.291 35.493 123.18 35.6365 123.041 35.7496C122.902 35.8626 122.739 35.9421 122.564 35.9819L122.563 35.9825Z" fill="white"/>
</svg>
