<svg width="585" height="355" viewBox="0 0 585 355" fill="none" xmlns="http://www.w3.org/2000/svg">
<path d="M585 280.934C585 323.441 467.108 354.079 355.325 354.079C243.542 354.079 2.19928 331.083 2.19928 288.576C2.19928 246.069 111.479 202.331 223.262 202.331C335.045 202.331 585 238.427 585 280.934Z" fill="#0099FF" fill-opacity="0.1"/>
<path d="M454.057 41.7627H311.522V38.8251H246.891V41.7627H103.769C101.212 41.7627 98.7592 42.7785 96.9509 44.5868C95.1426 46.3951 94.1267 48.8476 94.1267 51.4049V246.578C94.1267 249.135 95.1426 251.588 96.9509 253.396C98.7592 255.204 101.212 256.22 103.769 256.22H454.057C456.615 256.22 459.067 255.204 460.875 253.396C462.684 251.588 463.7 249.135 463.7 246.578V51.4038C463.699 48.8467 462.683 46.3945 460.875 44.5864C459.067 42.7784 456.615 41.7627 454.057 41.7627Z" fill="#303030"/>
<path d="M450.772 58.8016H107.054V252.694H450.772V58.8016Z" fill="#E6E6E6"/>
<path d="M436.313 69.0553H121.631V236.651H436.313V69.0553Z" fill="white"/>
<path d="M278.619 53.5145C280.566 53.5145 282.145 51.9361 282.145 49.9891C282.145 48.042 280.566 46.4636 278.619 46.4636C276.672 46.4636 275.094 48.042 275.094 49.9891C275.094 51.9361 276.672 53.5145 278.619 53.5145Z" fill="#6C63FF"/>
<path d="M473.35 249.169H439.805V246.752C439.805 246.624 439.754 246.503 439.665 246.413C439.575 246.323 439.453 246.272 439.326 246.272H427.825C427.697 246.272 427.575 246.323 427.486 246.413C427.396 246.503 427.345 246.624 427.345 246.752V249.169H420.157V246.752C420.157 246.624 420.107 246.503 420.017 246.413C419.927 246.323 419.805 246.272 419.678 246.272H408.177C408.05 246.272 407.928 246.323 407.838 246.413C407.748 246.503 407.697 246.624 407.697 246.752V249.169H400.51V246.752C400.51 246.624 400.459 246.503 400.369 246.413C400.279 246.323 400.157 246.272 400.03 246.272H388.529C388.402 246.272 388.28 246.323 388.19 246.413C388.1 246.503 388.05 246.624 388.05 246.752V249.169H380.862V246.752C380.862 246.624 380.811 246.503 380.722 246.413C380.632 246.323 380.51 246.272 380.383 246.272H368.882C368.755 246.272 368.633 246.323 368.543 246.413C368.453 246.503 368.403 246.624 368.403 246.752V249.169H361.214V246.752C361.214 246.624 361.164 246.503 361.074 246.413C360.984 246.323 360.862 246.272 360.735 246.272H349.234C349.107 246.272 348.985 246.323 348.895 246.413C348.805 246.503 348.755 246.624 348.755 246.752V249.169H341.567V246.752C341.567 246.624 341.516 246.503 341.426 246.413C341.336 246.323 341.214 246.272 341.087 246.272H329.589C329.462 246.272 329.34 246.323 329.25 246.413C329.16 246.503 329.109 246.624 329.109 246.752V249.169H321.919V246.752C321.919 246.624 321.868 246.503 321.779 246.413C321.689 246.323 321.567 246.272 321.44 246.272H231.348C231.221 246.272 231.099 246.323 231.009 246.413C230.919 246.503 230.869 246.624 230.869 246.752V249.169H223.681V246.752C223.681 246.624 223.631 246.503 223.541 246.413C223.451 246.323 223.329 246.272 223.202 246.272H211.701C211.573 246.272 211.452 246.323 211.362 246.413C211.272 246.503 211.221 246.624 211.221 246.752V249.169H204.033V246.752C204.033 246.624 203.983 246.503 203.893 246.413C203.803 246.323 203.681 246.272 203.554 246.272H192.053C191.926 246.272 191.804 246.323 191.715 246.413C191.625 246.503 191.574 246.624 191.574 246.752V249.169H184.386V246.752C184.386 246.624 184.335 246.503 184.245 246.413C184.155 246.323 184.033 246.272 183.906 246.272H172.406C172.279 246.272 172.157 246.323 172.067 246.413C171.977 246.503 171.926 246.624 171.926 246.752V249.169H164.74V246.752C164.74 246.624 164.689 246.503 164.599 246.413C164.509 246.323 164.387 246.272 164.26 246.272H152.758C152.631 246.272 152.509 246.323 152.419 246.413C152.329 246.503 152.279 246.624 152.279 246.752V249.169H145.091V246.752C145.091 246.624 145.04 246.503 144.95 246.413C144.861 246.323 144.739 246.272 144.612 246.272H133.11C132.983 246.272 132.861 246.323 132.771 246.413C132.682 246.503 132.631 246.624 132.631 246.752V249.169H125.443V246.752C125.443 246.624 125.393 246.503 125.303 246.413C125.213 246.323 125.091 246.272 124.964 246.272H113.461C113.333 246.272 113.212 246.323 113.122 246.413C113.032 246.503 112.981 246.624 112.981 246.752V249.169H90.9399C87.8897 249.169 84.9643 250.38 82.8074 252.537C80.6506 254.694 79.4388 257.62 79.4388 260.67V265.87C79.4388 268.92 80.6506 271.846 82.8074 274.003C84.9643 276.159 87.8897 277.371 90.9399 277.371H473.35C476.4 277.371 479.325 276.16 481.482 274.003C483.639 271.846 484.85 268.921 484.851 265.871V260.67C484.851 257.62 483.639 254.695 481.482 252.538C479.325 250.381 476.4 249.169 473.35 249.169V249.169Z" fill="#303030"/>
<path d="M348.549 80.8101H209.395V227.087H348.549V80.8101Z" fill="#E6E6E6"/>
<path d="M581.273 276.883H0V277.979H581.273V276.883Z" fill="#E6E6E6"/>
<path d="M524.82 238.607C532.696 247.058 533.103 259.481 533.103 259.481C533.103 259.481 520.741 258.2 512.865 249.748C504.989 241.297 504.582 228.875 504.582 228.875C504.582 228.875 516.944 230.156 524.82 238.607Z" fill="#3047B0"/>
<path d="M549.615 251.799C541.163 259.675 528.741 260.082 528.741 260.082C528.741 260.082 530.022 247.72 538.473 239.844C546.925 231.968 559.347 231.561 559.347 231.561C559.347 231.561 558.066 243.923 549.615 251.799Z" fill="#3047B0"/>
<path d="M547.514 276.883H516.429C515.833 276.883 515.249 276.715 514.743 276.399C514.237 276.083 513.831 275.63 513.57 275.094L506.803 261.182C506.566 260.698 506.457 260.161 506.486 259.622C506.514 259.084 506.679 258.561 506.965 258.104C507.251 257.647 507.649 257.27 508.12 257.009C508.592 256.748 509.123 256.612 509.662 256.612H554.282C554.822 256.612 555.352 256.748 555.824 257.009C556.296 257.27 556.693 257.647 556.979 258.104C557.265 258.561 557.43 259.084 557.459 259.622C557.487 260.161 557.378 260.698 557.142 261.182L550.374 275.094C550.113 275.631 549.707 276.083 549.201 276.4C548.696 276.716 548.111 276.883 547.515 276.883L547.514 276.883Z" fill="#E5E5E5"/>
<path d="M33.3954 238.607C41.2714 247.058 41.6784 259.481 41.6784 259.481C41.6784 259.481 29.3161 258.2 21.4402 249.748C13.5642 241.297 13.1572 228.875 13.1572 228.875C13.1572 228.875 25.5195 230.156 33.3954 238.607Z" fill="#3047B0"/>
<path d="M51.1586 276.883H20.0739C19.4775 276.883 18.893 276.715 18.3874 276.399C17.8818 276.083 17.4754 275.63 17.2147 275.094L10.4471 261.182C10.2107 260.698 10.1016 260.161 10.13 259.622C10.1584 259.084 10.3234 258.561 10.6094 258.104C10.8954 257.647 11.293 257.27 11.7648 257.009C12.2366 256.748 12.7671 256.612 13.3063 256.612H57.9268C58.466 256.612 58.9965 256.748 59.4683 257.009C59.9401 257.27 60.3377 257.647 60.6237 258.104C60.9097 258.561 61.0747 259.084 61.1031 259.622C61.1315 260.161 61.0224 260.698 60.7861 261.182L54.0184 275.094C53.7577 275.631 53.3513 276.083 52.8457 276.4C52.3401 276.716 51.7556 276.883 51.1592 276.883L51.1586 276.883Z" fill="#E5E5E5"/>
<path d="M295.762 122.219C305.976 122.219 314.256 113.939 314.256 103.725C314.256 93.5107 305.976 85.2307 295.762 85.2307C285.548 85.2307 277.268 93.5107 277.268 103.725C277.268 113.939 285.548 122.219 295.762 122.219Z" fill="#A0616A"/>
<path d="M253.21 227.388L265.154 152.202C265.789 148.205 267.268 144.389 269.492 141.007C271.717 137.626 274.636 134.757 278.056 132.591C281.475 130.426 285.317 129.013 289.325 128.448C293.333 127.883 297.415 128.177 301.3 129.313C308.093 131.277 313.91 135.704 317.614 141.727C321.318 147.751 322.643 154.939 321.33 161.888L308.839 229.032L253.21 227.388Z" fill="#3047B0"/>
<path d="M300.868 240.841C301.792 240.231 302.571 239.426 303.149 238.482C303.728 237.539 304.093 236.48 304.219 235.38C304.344 234.28 304.227 233.166 303.875 232.117C303.523 231.067 302.946 230.107 302.183 229.305L314.529 205.397L300.625 206.881L291.033 229.357C289.776 230.729 289.064 232.514 289.032 234.374C289.001 236.235 289.652 238.043 290.862 239.456C292.073 240.87 293.759 241.791 295.602 242.046C297.446 242.301 299.319 241.873 300.868 240.841L300.868 240.841Z" fill="#A0616A"/>
<path d="M303.512 225.088C302.829 224.992 302.192 224.69 301.685 224.222L296.961 219.857C296.451 219.383 296.099 218.764 295.952 218.084C295.805 217.403 295.87 216.694 296.14 216.052L305.58 193.675L304.241 149.46C304.632 146.592 306.147 143.996 308.452 142.244C310.757 140.493 313.663 139.729 316.532 140.12C319.4 140.511 321.995 142.026 323.747 144.331C325.499 146.636 326.263 149.542 325.872 152.411L328.162 180.205C328.858 188.641 326.466 197.042 321.432 203.846L306.709 223.749C306.426 224.131 306.066 224.45 305.651 224.684C305.237 224.918 304.778 225.062 304.304 225.107C304.04 225.132 303.774 225.126 303.512 225.088Z" fill="#3047B0"/>
<path d="M189.261 93.6483C189.463 94.7367 189.9 95.7677 190.543 96.6687C191.186 97.5696 192.019 98.3186 192.983 98.8629C193.947 99.4073 195.018 99.7336 196.122 99.8191C197.225 99.9045 198.334 99.747 199.371 99.3575L216.573 120.048L220.627 106.666L203.67 89.0693C202.897 87.3776 201.53 86.0275 199.83 85.2739C198.129 84.5202 196.211 84.4152 194.438 84.9786C192.665 85.5421 191.16 86.7349 190.206 88.3321C189.253 89.9293 188.916 91.8203 189.261 93.6483Z" fill="#A0616A"/>
<path d="M202.737 102.224C203.092 101.633 203.619 101.164 204.247 100.88L210.109 98.2322C210.744 97.9471 211.452 97.8638 212.136 97.9939C212.82 98.1239 213.448 98.4609 213.934 98.9592L230.86 116.377L272.098 132.383C273.331 133.114 274.408 134.082 275.267 135.23C276.127 136.378 276.751 137.684 277.106 139.074C277.46 140.464 277.537 141.909 277.332 143.329C277.127 144.748 276.645 146.113 275.913 147.346C275.18 148.579 274.212 149.655 273.063 150.514C271.914 151.372 270.608 151.996 269.218 152.35C267.828 152.703 266.382 152.779 264.963 152.573C263.544 152.368 262.179 151.884 260.947 151.151L234.46 142.423C226.42 139.775 219.616 134.297 215.313 127.008L202.726 105.691C202.484 105.281 202.331 104.825 202.277 104.352C202.223 103.879 202.27 103.4 202.413 102.946C202.493 102.694 202.602 102.452 202.738 102.225L202.737 102.224Z" fill="#3047B0"/>
<path opacity="0.1" d="M310.763 167.853L310.01 191.948L296.139 216.053L307.721 189.192L310.763 167.853Z" fill="black"/>
<path d="M283.238 94.4548C285.145 96.7125 288.373 97.3491 291.351 97.6104C297.399 98.1407 306.193 97.2817 312.104 95.9159C312.525 100.005 311.376 104.413 313.783 107.776C314.912 103.704 315.569 99.516 315.74 95.2941C315.813 93.4862 315.784 91.6103 315.048 89.9481C314.313 88.2859 312.708 86.8752 310.86 86.8604C312.233 85.8189 313.841 85.1314 315.542 84.8586L309.691 81.9182L311.194 80.3755L300.601 79.7274L303.669 77.7781C299.051 77.1442 294.379 76.9973 289.731 77.3398C287.572 77.4987 285.315 77.8028 283.566 79.0535C281.818 80.3043 280.807 82.7899 281.893 84.6263C280.533 84.8495 279.253 85.4161 278.174 86.2723C277.095 87.1285 276.253 88.2461 275.726 89.5192C274.947 91.4958 275.018 93.6916 275.258 95.7981C275.657 99.1671 276.44 102.479 277.592 105.67" fill="#303030"/>
<path d="M362.298 48.125L193.78 87.0306C192.952 87.2206 192.083 87.0746 191.363 86.6247C190.643 86.1747 190.131 85.4575 189.939 84.6304L180.288 42.8281C180.098 42.0005 180.244 41.1313 180.694 40.4113C181.144 39.6912 181.861 39.1789 182.688 38.987L351.207 0.0813361C352.034 -0.108685 352.903 0.0372992 353.624 0.487261C354.344 0.937223 354.856 1.65442 355.048 2.48154L364.699 44.2839C364.889 45.1115 364.743 45.9806 364.293 46.7007C363.843 47.4207 363.126 47.933 362.298 48.125Z" fill="white"/>
<path d="M362.298 48.125L193.78 87.0306C192.952 87.2206 192.083 87.0746 191.363 86.6247C190.643 86.1747 190.131 85.4575 189.939 84.6304L180.288 42.8281C180.098 42.0005 180.244 41.1313 180.694 40.4113C181.144 39.6912 181.861 39.1789 182.688 38.987L351.207 0.0813361C352.034 -0.108685 352.903 0.0372992 353.624 0.487261C354.344 0.937223 354.856 1.65442 355.048 2.48154L364.699 44.2839C364.889 45.1115 364.743 45.9806 364.293 46.7007C363.843 47.4207 363.126 47.933 362.298 48.125ZM182.976 40.2355C182.48 40.3507 182.05 40.658 181.78 41.0902C181.51 41.5223 181.422 42.0438 181.536 42.5404L191.187 84.3428C191.302 84.8392 191.609 85.2697 192.041 85.5397C192.473 85.8098 192.995 85.8973 193.492 85.7831L362.01 46.8774C362.507 46.7624 362.937 46.455 363.207 46.0229C363.477 45.5908 363.565 45.0691 363.451 44.5725L353.8 2.76965C353.685 2.27323 353.377 1.84274 352.945 1.5727C352.513 1.30266 351.991 1.21514 351.495 1.32935L182.976 40.2355Z" fill="#E6E6E6"/>
<path d="M241.451 40.1063C241.172 40.17 240.909 40.2879 240.676 40.4533C240.443 40.6186 240.245 40.8283 240.094 41.0702C239.942 41.3121 239.839 41.5816 239.792 41.8632C239.744 42.1448 239.752 42.4331 239.816 42.7115C239.88 42.9899 239.998 43.253 240.163 43.4858C240.329 43.7186 240.538 43.9165 240.78 44.0682C241.022 44.22 241.292 44.3225 241.573 44.3701C241.855 44.4176 242.143 44.4092 242.422 44.3454L242.429 44.3437L342.31 21.2844C342.871 21.154 343.357 20.8061 343.662 20.3173C343.967 19.8285 344.065 19.2387 343.936 18.6774C343.806 18.116 343.459 17.6291 342.971 17.3234C342.483 17.0177 341.893 16.9183 341.331 17.047L241.451 40.1063Z" fill="#E6E6E6"/>
<path d="M244.386 52.8191C244.107 52.8827 243.844 53.0006 243.611 53.166C243.378 53.3314 243.18 53.5411 243.029 53.783C242.877 54.0249 242.774 54.2944 242.726 54.576C242.679 54.8576 242.687 55.1458 242.751 55.4242C242.815 55.7027 242.933 55.9658 243.098 56.1986C243.264 56.4314 243.473 56.6293 243.715 56.781C243.957 56.9327 244.227 57.0353 244.508 57.0829C244.79 57.1304 245.078 57.122 245.357 57.0582L245.364 57.0565L288.343 47.134C288.905 47.0051 289.393 46.6583 289.699 46.1698C290.005 45.6813 290.105 45.0912 289.976 44.5292C289.847 43.9672 289.501 43.4793 289.012 43.1728C288.524 42.8664 287.934 42.7664 287.372 42.8949L287.365 42.8966L244.386 52.8191Z" fill="#E6E6E6"/>
<path d="M214.145 68.2823C221.351 68.2823 227.192 62.4411 227.192 55.2357C227.192 48.0302 221.351 42.1891 214.145 42.1891C206.94 42.1891 201.099 48.0302 201.099 55.2357C201.099 62.4411 206.94 68.2823 214.145 68.2823Z" fill="#4FBC7B"/>
<path d="M213.778 62.7618C213.351 62.861 212.904 62.8187 212.503 62.6413L212.478 62.6302L207.228 60.247C206.985 60.1366 206.765 59.9792 206.582 59.7838C206.399 59.5884 206.257 59.3589 206.163 59.1084C206.069 58.8579 206.025 58.5913 206.034 58.3238C206.043 58.0564 206.105 57.7933 206.215 57.5497C206.326 57.3061 206.484 57.0868 206.679 56.9042C206.875 56.7216 207.105 56.5794 207.355 56.4856C207.606 56.3919 207.873 56.3485 208.14 56.3579C208.408 56.3673 208.671 56.4294 208.914 56.5405L212.316 58.0891L217.088 47.6032C217.311 47.1123 217.721 46.7302 218.226 46.5411C218.731 46.3519 219.291 46.3711 219.782 46.5945L219.753 46.663L219.783 46.5941C220.274 46.8181 220.655 47.2277 220.844 47.7328C221.033 48.2379 221.014 48.7974 220.791 49.2885L215.179 61.6237C215.049 61.9079 214.855 62.1583 214.612 62.3555C214.37 62.5527 214.085 62.6913 213.78 62.7608L213.778 62.7618Z" fill="white"/>
</svg>
